<svg xmlns="http://www.w3.org/2000/svg" xmlns:xlink="http://www.w3.org/1999/xlink" version="1.1" id="Calque_1" x="0px" y="0px" width="100px" height="75.0px" viewBox="0 0 1024 768" enable-background="new 0 0 1024 768" xml:space="preserve">
<polygon points="869.191,215.865 618.524,313.731 707.55,491.187 731.524,485.699 738.024,498.699 931.477,423.914 "/>
<path d="M618.191,337.865c0,0-6,6.668-14,6.668s-42.668-17.334-47.334-20.668c-4.666-3.332-15.332-14-34.666-8.666s-46,14-50,17.334  c-4,3.332-12,14.666-12,18.666s-4.667,15.63-6.667,16.814c-2,1.186-10.667,15.186-2.667,23.186s16.001,6,23.334,3.334  c7.333-2.668,25.833-25.186,25.833-30.52s-5-18.814-5-18.814s11.833-1.119,12.5,10.107s7.337-9.441,25.335,7.893  s62.755,51.035,62.755,51.035s30.72-0.143,35.387-2.809c4.667-2.667-1.367,4.023-4.255,6.398s-16.222,6.09-16.222,6.09  s11.75,11.452,13.75,16.785s9.323,22.88,9.323,22.88l39.927-19.047C673.524,444.532,629.525,348.532,618.191,337.865z"/>
<path d="M146.524,210.231l238.167,90.507l27.333,7.467c0,0,2.901,2.176,0,8.668c-2.901,6.491-80.973,181.826-80.973,181.826  l-21.027-10l-8.164,17.166l-188.336-82.634L146.524,210.231z"/>
<path d="M417.858,328.866c0,0,22.334-3.001,36.667-10.667s44.666-20,54.333-17s9.74,3.764,9.74,3.764s-41.907,15.07-50.574,18.736  s-16.181,19.646-16.514,23.313s-8.568,22.937-11.236,25.937s-6.917,20.5,5.75,28.5s19.501,2.75,22.834,1.417  s17.167-6.014,24.167-16.347s14.998-21,21.499-19.333s8.667-0.987,21,12.013s40.5,33,40.5,33s40.025,33.226,41.167,36  c2.654,6.451,13.083,25.5,11.427,30.221c-1.126,3.208-4.708,13.466-15.093,14.779c-5.558,0.703-8.667-2-8.667-2l-35.667-39.667  l-12.666-16.583c0,0,2.666,17.916,4.666,20.583s24.842,26.798,27.334,29.667c3.914,4.505,10.318,9.128,11.685,12.354  c2.814,6.646-5.353,19.646-15.686,19.646s-16.5-4.055-16.5-4.055l-24-21.945l-9.5-11.75c0,0,0.335,12.751,2.001,15.417  s27.666,26.333,27.666,26.333l3.667,2.667c0,0,0.667,3.332-5.333,7.666s-15.971,5.725-16.971,5.392s-27.864-28.726-31.03-31.059  s0.001,11.297,0.001,11.297l9.01,8.37l13.28,14.319c0,0,1.042,0.348-3.624,4.348s-23.775,2.683-23.775,2.683  s12.608-16.183,1.358-25.683c-5.965-5.037-8.25-6.037-8.25-6.037c2.606-6.019,5.083-13.796,2.75-20.463s-8.083-12.833-14.416-14.5  s-16.584,1.25-16.584,1.25s1.368-11.228-9.083-18.93c-6.333-4.667-17.684-4.19-26.6,2.06c-4.946,3.468-16.817,12.87-16.817,12.87  c0.333-2.75-12.6-29.488-39.1-19.238l-15.322-13.021L417.858,328.866z"/>
<path d="M376.36,467.971c0,0-3.902,14.202,0.414,17.979c18,15.75,27.751,11.583,27.751,11.583s0.003,6.667,6.668,14.667  s19.998,13.667,19.998,13.667s-2.667,3.417,3.333,10.083s16.833,12.75,29,8.5c0,0-3.833,3.593,3.5,10.25s10.167,6.417,17.5,5.75  s18.001-12.917,18.001-12.917s8.754-13.346,0-20.666c-6.712-5.613-15.918-1.834-17.251-0.167s9.928-12.339,11.5-22.25  c1.322-8.333-3.417-12.167-10.75-14.5s-14.022,0.846-18,4.5c-4.477,4.112-8.499,7.083-8.499,7.083l-20.388,14.333  c0,0,21.137-18.916,24.637-27.166c1.936-4.562,1.36-12.071-4.249-15.5c-3.808-2.327-7.334-5.166-15-3.333  c-1.449,0.347-21.334,14.666-21.334,14.666l-7,5l-4.998,3c0,0,5.335-9.334,0-15S399.404,460.533,376.36,467.971z"/>
</svg>