<svg xmlns="http://www.w3.org/2000/svg" xmlns:xlink="http://www.w3.org/1999/xlink" version="1.1" id="Layer_1" x="0px" y="0px" width="100px" height="100px" viewBox="0 0 100 100" enable-background="new 0 0 100 100" xml:space="preserve">
<path fill="#000000" d="M-709.167,57.831c0.006-0.007,0.013-0.015,0.018-0.019c0,0,0.003-0.002,0.004-0.002  c1.001-0.922,2.16-1.871,3.472-2.75c0.05-0.035,0.088-0.061,0.11-0.074c0,0,0.004-0.002,0.006-0.002  c1.243-0.825,2.621-1.588,4.125-2.215c0.23-0.101,0.348-0.147,0.282-0.115c-0.002,0-0.005,0.002-0.008,0.004  c0.033-0.014,0.066-0.026,0.099-0.039l-0.013-0.053h-0.061c-0.061,0-1.298,0.557-2.272,1.069c-1.105,0.583-2.19,1.28-2.197,1.284  c-0.313,0.176-3.462,2.725-3.6,2.836c-0.176,0.161-2.575,2.688-2.677,2.792l-0.013,0.021c-0.004,0.008-0.044,0.088-0.08,0.209  C-711.256,59.92-710.318,58.893-709.167,57.831z"/>
<path fill="#000000" d="M-711.948,61.521c0.124,0.289,0.396,0.498,0.806,0.617l0.027,0.008l0.027-0.013  c0.383-0.175,3.75-1.739,3.903-2.352l0.006-0.025l-0.01-0.024c-0.014-0.032-1.302-3.375,6.073-7.012  c0.02-0.01,0.073-0.035,0.059-0.096l-0.001-0.008c-0.033,0.013-0.066,0.025-0.099,0.039c-7.515,3.708-6.101,7.105-6.101,7.105  c-0.149,0.596-3.861,2.303-3.861,2.303c-1.262-0.373-0.703-1.463-0.703-1.463s2.377-2.5,2.656-2.772  c-1.15,1.062-2.088,2.09-2.804,2.946C-712.025,60.964-712.066,61.247-711.948,61.521z"/>
<path fill="#000000" d="M-701.433,52.77c-1.504,0.627-2.882,1.39-4.125,2.215c0.065-0.043,1.109-0.711,2.188-1.28  C-702.612,53.307-701.843,52.951-701.433,52.77z"/>
<path fill="#000000" d="M-709.146,57.811c0.086-0.069,2.832-2.293,3.472-2.75C-706.986,55.939-708.145,56.889-709.146,57.811z"/>
<path fill="#000000" d="M-701.433,52.77c0.091-0.037,0.182-0.076,0.274-0.111c0.002-0.002,0.005-0.004,0.008-0.004  C-701.085,52.622-701.203,52.669-701.433,52.77z"/>
<path fill="#000000" d="M-705.564,54.986c-0.022,0.014-0.06,0.039-0.11,0.074c0.039-0.025,0.077-0.052,0.116-0.076  C-705.56,54.984-705.564,54.986-705.564,54.986z"/>
<path fill="#000000" d="M-709.15,57.812c-0.004,0.004-0.011,0.012-0.018,0.019c0.007-0.007,0.014-0.015,0.021-0.021L-709.15,57.812z  "/>
<path fill="#000000" d="M-703.37,53.704c-1.08,0.569-2.124,1.237-2.188,1.28c-0.039,0.024-0.078,0.051-0.116,0.076  c-0.64,0.457-3.386,2.681-3.472,2.75c-0.007,0.006-0.015,0.014-0.021,0.021c-0.279,0.272-2.656,2.772-2.656,2.772  s-0.559,1.09,0.703,1.463c0,0,3.712-1.707,3.861-2.303c0,0-1.414-3.397,6.101-7.105c-0.092,0.035-0.184,0.074-0.274,0.111  C-701.843,52.951-702.612,53.307-703.37,53.704z"/>
<path d="M-694.897,261.838c0.005-0.051,0.012-0.087,0.015-0.099l-0.4-0.08l0.399,0.084l-0.799-0.169  c-0.012,0.057-0.101,0.525,0.007,1.217c0.211-0.283,0.442-0.57,0.699-0.863L-694.897,261.838z"/>
<path d="M-694.948,255.736c-0.007,0.021-0.074,0.26-0.078,0.635l0.08-0.635H-694.948L-694.948,255.736z"/>
<polygon points="-694.558,255.854 -694.167,255.973 -694.167,255.971 "/>
<path d="M-694.167,255.973L-694.167,255.973L-694.167,255.973z"/>
<path d="M-694.457,258.339l0.243-1.944c0.001-0.244,0.04-0.396,0.046-0.422l-0.779-0.236l-0.08,0.636  C-695.031,256.852-694.927,257.555-694.457,258.339z"/>
<g>
	<polygon points="64.854,90.461 69.375,86.182 69.417,29.628 64.854,28.829  "/>
	<path d="M66.939,17.278l-12.942,0.895v-2.998l-0.146-0.071c-0.754-0.37-1.615-0.557-2.557-0.557c-1.104,0-2.047,0.255-2.538,0.419   v-4.09l-0.146-0.071c-0.754-0.37-1.614-0.558-2.556-0.558c-1.155,0-2.135,0.28-2.604,0.441v-4.34l-0.153-0.069   c-0.816-0.367-1.747-0.554-2.766-0.554c-1.72,0-3.083,0.526-3.141,0.549l-0.165,0.064V19.25v0.021l-6.506,0.51l2.055,8.292   c-0.686-0.106-1.409-0.162-2.154-0.162c-1.334,0-2.263,0.171-2.301,0.179l-0.213,0.04v1.974l-0.57,0.026v54.92l36.884,5.412v-62.07   l-0.342,0.06l0,0l0.342-0.06v-0.356l4.972,0.896L66.939,17.278z M59.382,29.013l-0.001,0.216c0,0.024-0.021,2.408-0.137,4.171   c-0.039,0.421-0.084,0.827-0.137,1.203c-0.021,0.147-0.045,0.293-0.07,0.436v-7.913c0.307-0.102,1.049-0.304,2.119-0.304   c0.781,0,1.59,0.108,2.402,0.322v1.135L59.382,29.013z M37.783,23.772c0.025-0.007,0.053-0.016,0.082-0.024   c0.006-0.002,0.013-0.004,0.02-0.006c0.071-0.021,0.154-0.043,0.248-0.066c0.012-0.003,0.024-0.006,0.037-0.009   c0.036-0.009,0.073-0.017,0.112-0.026c0.015-0.003,0.03-0.007,0.046-0.01c0.046-0.01,0.094-0.02,0.145-0.03   c0.008-0.001,0.016-0.003,0.023-0.005c0.058-0.011,0.119-0.022,0.182-0.033c0.017-0.003,0.032-0.005,0.049-0.008   c0.049-0.008,0.098-0.015,0.148-0.023c0.022-0.003,0.045-0.006,0.066-0.01c0.053-0.007,0.106-0.014,0.161-0.021   c0.019-0.002,0.037-0.004,0.056-0.007c0.074-0.008,0.149-0.016,0.228-0.023c0.015-0.001,0.03-0.002,0.046-0.003   c0.063-0.005,0.129-0.01,0.195-0.015c0.026-0.001,0.053-0.003,0.079-0.005c0.061-0.003,0.122-0.006,0.185-0.008   c0.026-0.001,0.052-0.002,0.079-0.003c0.087-0.002,0.177-0.004,0.269-0.004c0.115,0,0.231,0.002,0.348,0.006   c0.039,0.001,0.078,0.004,0.117,0.006c0.077,0.004,0.154,0.007,0.231,0.013c0.047,0.003,0.094,0.008,0.141,0.012   c0.069,0.005,0.14,0.011,0.209,0.019c0.05,0.005,0.101,0.012,0.15,0.018c0.066,0.008,0.133,0.016,0.199,0.025   c0.052,0.007,0.104,0.016,0.155,0.023c0.064,0.01,0.13,0.021,0.194,0.032c0.053,0.009,0.105,0.019,0.157,0.029   c0.064,0.012,0.129,0.024,0.192,0.038c0.053,0.011,0.105,0.023,0.159,0.035c0.062,0.014,0.127,0.029,0.189,0.044   c0.054,0.013,0.106,0.026,0.159,0.04c0.03,0.008,0.061,0.016,0.09,0.024v16.477l-5.185,0.023V28.152v-4.368   c0.008-0.002,0.015-0.004,0.022-0.007C37.773,23.775,37.778,23.773,37.783,23.772z M33.103,28.545   c0.367-0.092,0.743-0.161,1.12-0.204c0.147-0.017,0.297-0.03,0.458-0.04l0.07-0.003c0.138-0.007,0.273-0.012,0.416-0.013h0.047   l0.163,0.001c0.044,0.001,0.088,0.002,0.131,0.003l0.259,0.013c0.047,0.003,0.092,0.006,0.136,0.01l0.044,0.003   c0.442,0.039,0.872,0.115,1.28,0.226V40.3l-3.37,0.012h-0.011c-0.06-0.009-0.12-0.022-0.169-0.037   c-0.2-0.07-0.438-0.211-0.574-0.298V28.545z M43.451,28.356c0.359-0.049,1.328-0.164,2.522-0.164c0.805,0,1.562,0.054,2.264,0.156   v3.859l0,0v8.34l-4.786,0.024V28.356z M50.013,32.519c0.144-0.008,0.296-0.015,0.456-0.02c0.016,0,0.031-0.001,0.047-0.001   c0.063-0.002,0.127-0.003,0.192-0.004c0.021,0,0.044-0.001,0.063-0.001c0.082-0.001,0.166-0.002,0.25-0.002   c0.213,0,0.429,0.004,0.644,0.011c0.069,0.002,0.142,0.007,0.212,0.01c0.145,0.006,0.288,0.013,0.434,0.022   c0.084,0.006,0.168,0.014,0.254,0.021c0.129,0.01,0.26,0.021,0.389,0.034c0.092,0.009,0.184,0.02,0.273,0.031   c0.084,0.01,0.168,0.02,0.252,0.03v7.577l-4.722,0.021v-7.606c0.235-0.035,0.66-0.088,1.233-0.121   C49.998,32.52,50.006,32.52,50.013,32.519z M51.295,15.066c0.801,0,1.534,0.147,2.184,0.436v16.622   c-0.076-0.009-0.149-0.016-0.226-0.024c-0.089-0.01-0.179-0.021-0.269-0.029c-0.133-0.013-0.266-0.024-0.397-0.035   c-0.086-0.007-0.173-0.014-0.259-0.02c-0.146-0.01-0.291-0.017-0.436-0.023c-0.074-0.003-0.146-0.008-0.22-0.01   c-0.218-0.007-0.435-0.012-0.651-0.012c-0.119,0-0.234,0.002-0.349,0.004c-0.032,0-0.063,0.001-0.096,0.002   c-0.085,0.002-0.167,0.004-0.248,0.007c-0.027,0.001-0.055,0.002-0.081,0.003c-0.103,0.004-0.201,0.009-0.296,0.014   c-0.015,0.001-0.028,0.002-0.043,0.003c-0.08,0.005-0.158,0.01-0.232,0.016c-0.025,0.001-0.05,0.003-0.074,0.005   c-0.068,0.005-0.134,0.011-0.195,0.017c-0.017,0.001-0.033,0.003-0.05,0.004c-0.075,0.007-0.146,0.014-0.214,0.021   c-0.015,0.001-0.029,0.003-0.044,0.005c-0.052,0.006-0.101,0.012-0.147,0.018c-0.017,0.002-0.033,0.004-0.049,0.006   c-0.047,0.006-0.093,0.012-0.133,0.018c-0.005,0.001-0.011,0.001-0.015,0.002v-3.688V15.516   C49.131,15.381,50.125,15.066,51.295,15.066z M43.517,11.217c0.374-0.135,1.372-0.449,2.538-0.449c0.801,0,1.534,0.146,2.183,0.436   V27.82c-0.704-0.098-1.464-0.147-2.264-0.147c-1.106,0-2.011,0.094-2.457,0.15V11.217z M37.746,6.699   c0.404-0.134,1.502-0.455,2.786-0.455c0.881,0,1.687,0.148,2.398,0.442v16.572c-0.008-0.002-0.017-0.004-0.024-0.006   c-0.038-0.009-0.074-0.018-0.111-0.027c-0.083-0.02-0.165-0.04-0.247-0.058c-0.046-0.01-0.091-0.019-0.136-0.028   c-0.074-0.016-0.149-0.03-0.225-0.044c-0.048-0.009-0.096-0.017-0.144-0.025c-0.072-0.012-0.146-0.024-0.219-0.035   c-0.049-0.007-0.097-0.015-0.146-0.021c-0.071-0.01-0.144-0.019-0.216-0.027c-0.049-0.006-0.098-0.012-0.146-0.017   c-0.074-0.008-0.147-0.014-0.222-0.02c-0.046-0.004-0.093-0.008-0.139-0.011c-0.081-0.006-0.163-0.01-0.244-0.013   c-0.038-0.002-0.077-0.004-0.115-0.006c-0.12-0.004-0.239-0.006-0.358-0.006c-0.132,0-0.258,0.003-0.382,0.008   c-0.036,0.001-0.071,0.003-0.107,0.005c-0.091,0.004-0.18,0.01-0.267,0.016c-0.031,0.002-0.062,0.004-0.094,0.007   c-0.112,0.01-0.221,0.02-0.324,0.032c-0.011,0.001-0.021,0.003-0.031,0.004c-0.095,0.011-0.185,0.024-0.271,0.037   c-0.027,0.004-0.055,0.008-0.081,0.013c-0.073,0.012-0.144,0.024-0.211,0.036c-0.02,0.004-0.041,0.007-0.06,0.011   c-0.085,0.016-0.164,0.032-0.238,0.049c-0.013,0.002-0.023,0.005-0.035,0.008c-0.062,0.014-0.12,0.028-0.175,0.042   c-0.019,0.005-0.036,0.009-0.055,0.014c-0.048,0.013-0.094,0.025-0.136,0.038c-0.008,0.002-0.018,0.004-0.025,0.006V6.699   L37.746,6.699z M28.628,28.566c0.341-0.049,1.07-0.136,1.993-0.136c0.678,0,1.336,0.046,1.962,0.137v10.87   c-0.369-0.503-0.911-1.456-1.319-3.079c-0.375-1.663-0.56-3.803-0.548-6.361l0.001-0.273l-2.089,0.095V28.566L28.628,28.566z    M56.264,40.455c-0.004,0.001-0.006,0.001-0.006,0.001h-0.007c-0.104,0.014-0.214,0.021-0.325,0.02l-0.172,0.001l-1.757,0.072   V32.72v-0.524v-5.341c0.233-0.072,0.616-0.171,1.131-0.233c0.347-0.047,0.731-0.075,1.13-0.058c0.016,0,0.031,0.001,0.047,0.002   c0.641,0.014,1.387,0.101,2.213,0.312l0.002,11.277C58.018,39.398,57.297,40.31,56.264,40.455z"/>
	<polygon points="67.452,17.409 69.923,29.143 69.938,29.146 69.957,34.771 72.462,34.771 72.462,19.914  "/>
</g>
</svg>