<svg xmlns="http://www.w3.org/2000/svg" xmlns:xlink="http://www.w3.org/1999/xlink" version="1.0" x="0px" y="0px" width="100px" height="100px" viewBox="0 0 100 100" overflow="" enable-background="new 0 0 100 100" xml:space="preserve">
    <path d="M41.789,13.091c2.236,0,4.048-1.817,4.048-4.051c0-2.243-1.812-4.051-4.048-4.051 c-2.246,0-4.053,1.808-4.053,4.051C37.736,11.274,39.543,13.091,41.789,13.091z"/>
    <path d="M52.163,61.463h-5.56c-1.084,0-1.962,0.882-1.962,1.966v1.956c0,1.083,0.878,1.965,1.962,1.965h5.56 c1.084,0,1.956-0.882,1.956-1.965v-1.956C54.119,62.345,53.247,61.463,52.163,61.463z"/>
    <path d="M65.777,71.729h-5.56c-1.089,0-1.969,0.879-1.969,1.961v1.96c0,1.081,0.88,1.966,1.969,1.966h5.56 c1.079,0,1.958-0.885,1.958-1.966v-1.96C67.735,72.607,66.856,71.729,65.777,71.729z"/>
    <path d="M65.777,81.988h-5.56c-1.089,0-1.969,0.883-1.969,1.966v1.963c0,1.081,0.88,1.958,1.969,1.958h5.56 c1.079,0,1.958-0.877,1.958-1.958v-1.963C67.735,82.871,66.856,81.988,65.777,81.988z"/>
    <path d="M52.163,81.988h-5.56c-1.084,0-1.962,0.883-1.962,1.966v1.963c0,1.081,0.878,1.958,1.962,1.958h5.56 c1.084,0,1.956-0.877,1.956-1.958v-1.963C54.119,82.871,53.247,81.988,52.163,81.988z"/>
    <path d="M52.163,71.729h-5.56c-1.084,0-1.962,0.879-1.962,1.961v1.96c0,1.081,0.878,1.966,1.962,1.966h5.56 c1.084,0,1.956-0.885,1.956-1.966v-1.96C54.119,72.607,53.247,71.729,52.163,71.729z"/>
    <path d="M65.777,61.463h-5.56c-1.089,0-1.969,0.882-1.969,1.966v1.956c0,1.083,0.88,1.965,1.969,1.965h5.56 c1.079,0,1.958-0.882,1.958-1.965v-1.956C67.735,62.345,66.856,61.463,65.777,61.463z"/>
    <path d="M79.461,44.132H46.604c-1.084,0-1.962,0.883-1.962,1.958v8.668c0,1.089,0.878,1.966,1.962,1.966h32.857 c1.083,0,1.963-0.877,1.963-1.966V46.09C81.424,45.015,80.544,44.132,79.461,44.132z"/>
    <path d="M79.389,81.988h-5.555c-1.089,0-1.963,0.883-1.963,1.966v1.963c0,1.081,0.874,1.958,1.963,1.958h5.555 c1.079,0,1.964-0.877,1.964-1.958v-1.963C81.353,82.871,80.468,81.988,79.389,81.988z"/>
    <path d="M79.389,61.463h-5.555c-1.089,0-1.963,0.882-1.963,1.966v1.956c0,1.083,0.874,1.965,1.963,1.965h5.555 c1.079,0,1.964-0.882,1.964-1.965v-1.956C81.353,62.345,80.468,61.463,79.389,61.463z"/>
    <path d="M79.389,71.729h-5.555c-1.089,0-1.963,0.879-1.963,1.961v1.96c0,1.081,0.874,1.966,1.963,1.966h5.555 c1.079,0,1.964-0.885,1.964-1.966v-1.96C81.353,72.607,80.468,71.729,79.389,71.729z"/>
    <path d="M83.674,33.477h-7.604V16.133c0-6.212-5.031-11.247-11.243-11.247H52.79 c-1.216-2.435-3.496-4.256-6.226-4.865c-0.017-0.006-0.033-0.01-0.05-0.01c-0.054-0.016-0.116-0.026-0.171-0.026 c-0.361,0-0.656,0.293-0.656,0.647c0,0.284,0.178,0.523,0.427,0.614c2.885,1.555,4.853,4.609,4.853,8.118h7.639h0.679 c5.098,0,9.218,4.126,9.218,9.223v2.899c0,1.535-1.245,2.791-2.786,2.791H18.455c-1.541,0-2.785-1.256-2.785-2.791v-2.899 c0-5.096,4.119-9.223,9.217-9.223h7.645c0-1.626,0.422-3.152,1.156-4.479H19.111c-6.21,0-11.242,5.035-11.242,11.247v57.743 c0,6.208,5.032,11.245,11.242,11.245h0.022h12.965v5.384v0.005c0,5.076,4.125,9.193,9.201,9.193h42.374 c5.076,0,9.204-4.117,9.204-9.193v-0.005V42.677C92.878,37.599,88.75,33.477,83.674,33.477z M86.301,90.136 c0,1.651-1.342,2.995-2.998,2.995H41.672c-1.651,0-2.996-1.344-2.996-2.995V43.094c0-1.65,1.345-3.001,2.996-3.001h41.631 c1.656,0,2.998,1.351,2.998,3.001V90.136z"/>
</svg>