<svg xmlns="http://www.w3.org/2000/svg" xmlns:xlink="http://www.w3.org/1999/xlink" version="1.1" id="Layer_1" x="0px" y="0px" width="100px" height="100px" viewBox="0 0 100 100" enable-background="new 0 0 100 100" xml:space="preserve">
<path d="M49.182,26.13L60.615,9.857l-1.961-2.121l2.499-2.161l-3.448-3.195h-1.906l-2.419,8.484  c-0.851,3.014-1.316,4.737-1.866,6.77C50.969,19.647,50.343,21.962,49.182,26.13z"/>
<path d="M44.149,17.635c-0.549-2.033-1.015-3.756-1.865-6.77l-2.42-8.484h-1.907l-3.448,3.195l2.5,2.161l-1.962,2.121L46.48,26.13  C45.319,21.962,44.693,19.647,44.149,17.635z"/>
<path d="M65.592,50.191V23.774l8.028,16.276l9.44-2.643l-6.452-20.614L65.595,4.28V4.245L59.33,2.893l2.915,2.701L59.7,7.793  l1.854,2.003L48.363,28.619v21.572h0.001l-0.001,0.001l2.521,49.213h19.105L65.58,50.192v-0.001H65.592z M51.024,31.266  c0.627,0,1.135,0.508,1.135,1.136c0,0.626-0.509,1.134-1.135,1.134c-0.627,0-1.135-0.508-1.135-1.134  C49.89,31.773,50.397,31.266,51.024,31.266z M51.024,38.013c0.627,0,1.135,0.508,1.135,1.135c0,0.626-0.509,1.134-1.135,1.134  c-0.627,0-1.135-0.507-1.135-1.134C49.89,38.521,50.397,38.013,51.024,38.013z M51.024,44.761c0.627,0,1.135,0.509,1.135,1.135  c0,0.626-0.509,1.135-1.135,1.135c-0.627,0-1.135-0.507-1.135-1.135C49.89,45.27,50.397,44.761,51.024,44.761z"/>
<polygon points="34.108,9.796 35.96,7.792 33.417,5.594 36.388,2.841 29.888,4.244 18.844,16.793 12.39,37.408 21.829,40.051   29.889,23.709 29.889,42.798 29.889,50.192 25.48,99.405 44.585,99.405 47.106,50.192 47.106,28.471 "/>
</svg>