<svg xmlns="http://www.w3.org/2000/svg" xmlns:xlink="http://www.w3.org/1999/xlink" version="1.1" id="Layer_1" x="0px" y="0px" width="100px" height="100px" viewBox="0 0 100 100" enable-background="new 0 0 100 100" xml:space="preserve">
<g>
	<g>
		<path fill="#000000" d="M316.127,45.741h-91.771c-1.878,0-3.399,1.523-3.399,3.401v59.702c0,1.878,1.521,3.4,3.399,3.4h91.771    c1.878,0,3.402-1.522,3.402-3.4V49.142C319.529,47.264,318.005,45.741,316.127,45.741z M313.86,106.577h-87.239V51.409h87.239    V106.577z"/>
		<polygon fill="#000000" points="286.277,133.027 256.804,133.027 262.472,112.244 280.608,112.244   "/>
	</g>
	<rect x="252.953" y="133.027" fill="#000000" width="36.964" height="1.082"/>
</g>
<g>
	<g>
		<path fill="#000000" d="M316.127,45.741h-91.771c-1.878,0-3.399,1.523-3.399,3.401v59.702c0,1.878,1.521,3.4,3.399,3.4h91.771    c1.878,0,3.402-1.522,3.402-3.4V49.142C319.529,47.264,318.005,45.741,316.127,45.741z M313.86,106.577h-87.239V51.409h87.239    V106.577z"/>
		<polygon fill="#000000" points="286.277,133.027 256.804,133.027 262.472,112.244 280.608,112.244   "/>
	</g>
	<rect x="252.953" y="133.027" fill="#000000" width="36.964" height="1.082"/>
</g>
<g>
	<g>
		<path fill="#000000" d="M316.127,45.741h-91.771c-1.878,0-3.399,1.523-3.399,3.401v59.702c0,1.878,1.521,3.4,3.399,3.4h91.771    c1.878,0,3.402-1.522,3.402-3.4V49.142C319.529,47.264,318.005,45.741,316.127,45.741z M313.86,106.577h-87.239V51.409h87.239    V106.577z"/>
		<polygon fill="#000000" points="286.277,133.027 256.804,133.027 262.472,112.244 280.608,112.244   "/>
	</g>
	<rect x="252.953" y="133.027" fill="#000000" width="36.964" height="1.082"/>
</g>
<g>
	<g>
		<path fill="#000000" d="M316.127,45.741h-91.771c-1.878,0-3.399,1.523-3.399,3.401v59.702c0,1.878,1.521,3.4,3.399,3.4h91.771    c1.878,0,3.402-1.522,3.402-3.4V49.142C319.529,47.264,318.005,45.741,316.127,45.741z M313.86,106.577h-87.239V51.409h87.239    V106.577z"/>
		<polygon fill="#000000" points="286.277,133.027 256.804,133.027 262.472,112.244 280.608,112.244   "/>
	</g>
	<rect x="252.953" y="133.027" fill="#000000" width="36.964" height="1.082"/>
</g>
<g>
	<path d="M36.66,29.53l-11.542-9.327c0,0-2.667-8.213,5.771-5.771c0,0,5.105,1.777,8.213-2.442c0,0,3.55-12.878,13.988-3.552   c0,0,3.332,10.822,8.218,8.851c0,0,5.105-9.294,12.21-4.188c0,0,4.664,5.993-9.769,16.43H36.66z"/>
	<path d="M79.851,60.836c0,0-1.337-7.891-17.538-21.093H35.892c0,0-16.656,15.54-19.316,23.979c0,0-3.111,18.872,20.646,24.202   c0,0,15.986,3.773,30.64-2.667C67.861,85.257,87.181,80.815,79.851,60.836z M50.669,74.243v4.342h-2.634v-4.177   c-2.423-0.043-4.89-0.796-6.353-1.84l1.004-2.799c1.462,0.961,3.635,1.797,5.973,1.797c2.969,0,4.975-1.718,4.975-4.098   c0-2.296-1.629-3.721-4.722-4.97c-4.264-1.67-6.898-3.638-6.898-7.275c0-3.468,2.467-6.101,6.27-6.728v-4.179h2.634v4.055   c2.466,0.083,4.177,0.751,5.431,1.462l-1.043,2.758c-0.879-0.503-2.59-1.463-5.269-1.463c-3.214,0-4.426,1.924-4.426,3.638   c0,2.13,1.544,3.215,5.181,4.762c4.303,1.759,6.479,3.888,6.479,7.605C57.271,70.479,54.972,73.569,50.669,74.243z"/>
	<rect x="33.141" y="31.997" width="33.401" height="5.171"/>
</g>
</svg>