<svg xmlns="http://www.w3.org/2000/svg" xmlns:xlink="http://www.w3.org/1999/xlink" version="1.1" id="Calque_1" x="0px" y="0px" width="100px" height="100px" viewBox="125 0 100 100" enable-background="new 125 0 100 100" xml:space="preserve">
<g>
	<polygon points="145.01,75.75 215.42,75.75 215.42,80.09 134.59,80.09 134.59,65.34 130.64,65.34 130.64,61 134.59,61    134.59,50.95 130.64,50.95 130.64,46.61 134.59,46.61 134.59,36.57 130.64,36.57 130.64,32.23 134.59,32.23 134.59,24.74    138.94,24.74 138.94,32.23 143.17,32.23 143.17,36.57 138.94,36.57 138.94,46.61 143.17,46.61 143.17,50.95 138.94,50.95    138.94,61 143.17,61 143.17,65.34 138.94,65.34 138.94,74.2 143.53,71.6 148.07,54 157.52,57.45 162.09,45.86 171.67,25.32    202.33,65.19 211.92,67.38 213.07,64.78 216.21,69.1 219.36,73.42 214.04,73.99 208.73,74.55 210.12,71.43 199.84,69.08    172.58,33.63 166.05,47.64 160.01,62.98 151.08,59.72 147.27,74.47  "/>
</g>
<g>
	<g>
		<path d="M174.895,63.902c-1.886-0.418-3.572-1.486-3.572-3.356c0-2.237,1.687-3.373,3.572-3.406v-1.202h1.236v1.202    c1.286,0.033,2.321,0.567,3.424,1.653l-1.303,1.286c-0.668-0.652-1.235-1.137-2.121-1.271v3.34    c2.355,0.702,3.691,1.704,3.691,3.809c0,2.203-1.671,3.138-3.691,3.238v2.004h-1.236v-2.004c-1.469-0.15-2.771-0.751-3.69-1.986    l1.437-1.236c0.618,0.936,1.286,1.336,2.254,1.554V63.902z M174.895,58.809c-1.019,0.068-1.702,0.502-1.702,1.587    c0,0.769,0.518,1.085,1.702,1.42V58.809z M176.131,67.526c0.869,0,1.82-0.334,1.82-1.52c0-0.97-0.735-1.454-1.82-1.737V67.526z"/>
	</g>
</g>
</svg>