<svg xmlns="http://www.w3.org/2000/svg" xmlns:xlink="http://www.w3.org/1999/xlink" version="1.1" x="0px" y="0px" width="100px" height="100px" viewBox="0 0 100 100" enable-background="new 0 0 100 100" xml:space="preserve">
<g id="Captions">
</g>
<g id="Your_Icon">
	<path d="M88.896,45.39L79,55.339V34H64v16h-5V26H30v24.977l-0.015-0.198L17.678,35.704L2,51.373V72h11V61h6v11h79V54.546   L88.896,45.39z M40,48h-6v-6h6V48z M40,36h-6v-6h6V36z M55,48h-6v-6h6V48z M55,36h-6v-6h6V36z M86,66h-2v-7h2V66z M90,66h-2v-7h2   V66z"/>
</g>
</svg>