<svg xmlns="http://www.w3.org/2000/svg" xmlns:xlink="http://www.w3.org/1999/xlink" version="1.1" id="Your_Icon" x="0px" y="0px" width="100px" height="100px" viewBox="0 0 100 100" enable-background="new 0 0 100 100" xml:space="preserve">
<path fill="#000000" d="M30.105,37.382c6.257-0.334,12.521-0.631,18.79-0.578c2.712,0.058,5.478,0.168,8.076,1.024  c3.541,1.252,6.822,3.106,10.107,4.901c1.947,1.071,3.854,2.217,5.779,3.328c1.009,0.078,2.01-0.263,3.021-0.11  c6.359,0.582,12.688,1.673,18.832,3.43c0.895,0.272,1.863,0.546,2.484,1.296c0.598,0.653,0.783,1.548,0.921,2.392  c0.647,0.105,1.591,0.047,1.834,0.82c0.126,1.029-0.024,2.078-0.14,3.105c-0.039,0.396-0.568,0.324-0.84,0.451  c-0.354,1.039-0.548,2.147-1.084,3.117c-0.527,0.885-1.49,1.549-2.546,1.535c-1.993,0.07-3.983,0.25-5.978,0.273  c0.005-1.551,0.145-3.143-0.303-4.648c-0.703-2.562-2.586-4.861-5.143-5.726c-3.127-1.024-6.902-0.188-9.102,2.321  c-1.539,1.746-2.266,4.092-2.336,6.392c-0.041,0.776,0.039,1.63-0.444,2.296c-13.041,0.42-26.078,0.965-39.12,1.428  c0-2.857-0.748-5.88-2.801-7.97c-2.77-2.933-7.757-3.39-10.992-0.97c-1.52,1.104-2.697,2.689-3.27,4.479  c-0.434,1.321-0.228,2.73-0.151,4.09c-4.027-0.258-8.049-0.594-12.074-0.867c-1.108-0.1-1.494-1.274-2.29-1.857  c-0.754-0.574-0.872-1.57-1.086-2.422c-0.115-0.691-0.405-1.428-0.159-2.117c0.469-0.988,1.611-1.279,2.531-1.686  c0.301-0.15,0.748-0.305,0.734-0.715c0.095-1.732,0.168-3.465,0.266-5.198c0.033-0.682,0.367-1.29,0.677-1.881  c1.075-2.042,2.199-4.08,3.682-5.857c0.538-0.657,1.182-1.252,1.992-1.544c2.02-0.772,4.164-1.162,6.292-1.502  C20.865,37.899,25.49,37.658,30.105,37.382z M45.383,38.528c0.894,2.839,1.87,5.651,2.801,8.479  c0.031,0.367,0.378,0.467,0.697,0.438c5.312,0.02,10.625-0.027,15.939-0.02c0.697-0.022,1.414,0.073,2.087-0.157  c0.215-0.77-0.263-1.509-0.886-1.925c-2.061-1.521-4.211-2.921-6.442-4.18c-1.421-0.777-2.865-1.556-4.447-1.949  c-2.678-0.737-5.475-0.826-8.236-0.817C46.39,38.408,45.868,38.344,45.383,38.528z M29.47,39.51  c-0.564,2.294-1.011,4.616-1.516,6.925c-0.095,0.403-0.155,0.816-0.162,1.232c5.337-0.031,10.671-0.13,16.008-0.13  c0.272,0.002,0.542-0.026,0.808-0.086c-0.573-2.786-1.153-5.574-1.757-8.355c-0.04-0.429-0.533-0.27-0.812-0.283  C37.852,39.023,33.643,39.09,29.47,39.51z M13.805,41.152c-0.516,0.069-0.695,0.628-0.923,1.018  c-0.836,1.684-1.772,3.321-2.573,5.025c0.004,0.108,0.016,0.327,0.02,0.436c4.505-0.106,9.01-0.219,13.517-0.314  c0.533,0.06,0.637-0.54,0.757-0.923c0.551-2.086,1.256-4.133,1.706-6.244c-0.438-0.042-0.878-0.062-1.314-0.022  C21.257,40.377,17.502,40.532,13.805,41.152z"/>
<path fill="#000000" d="M79.939,53.213c1.72-0.252,3.537,0.133,4.975,1.119c1.812,1.197,3.01,3.291,3.072,5.467  c0.104,2.021-0.758,4.062-2.258,5.417c-2.365,2.216-6.279,2.438-8.877,0.498c-2.604-1.799-3.637-5.491-2.319-8.372  C75.458,55.148,77.584,53.537,79.939,53.213z"/>
<path fill="#000000" d="M23.089,56.164c3.454-0.615,7.111,1.76,7.895,5.189c0.932,3.357-1.139,7.146-4.436,8.229  c-3.242,1.232-7.231-0.365-8.689-3.52c-1.564-3.045-0.405-7.119,2.524-8.885C21.202,56.66,22.131,56.312,23.089,56.164z"/>
</svg>