<svg xmlns="http://www.w3.org/2000/svg" xmlns:xlink="http://www.w3.org/1999/xlink" xml:space="preserve" width="100px" height="46px" style="shape-rendering:geometricPrecision; text-rendering:geometricPrecision; image-rendering:optimizeQuality; fill-rule:evenodd; clip-rule:evenodd" viewBox="0 0 8.89145 4.05659">
 <defs>
  <style type="text/css">
   
    .fil0 {fill:#0A0B0C}
   
  </style>
 </defs>
 <g id="Layer_x0020_1">
  <metadata id="CorelCorpID_0Corel-Layer"/>
  <path class="fil0" d="M5.04248 1.00223c0.909127,-0.570316 2.05856,-0.994655 3.37268,-0.795748 0.45814,-0.360745 0.70724,0.584434 0.180284,0.425752 -0.969697,-0.0682966 -1.89237,0.166508 -2.71153,1.06823 -0.0543326,0.0681972 -0.0931999,0.11265 -0.126625,0.147268 -0.213202,-0.327828 -0.451473,-0.609669 -0.714812,-0.8455zm-4.86928 -0.770238c0.191621,-0.322386 2.17856,-0.296257 2.31793,0 0.171188,0.51553 0.181697,1.18107 0.102097,1.93073 -0.0195827,0.325079 0.20904,0.332486 0.607494,0.122552 0.172778,-0.0864663 0.612969,-0.354332 1.07657,-0.731956 0.181223,-0.14761 0.377635,-0.295253 0.588187,-0.436294 0.276222,0.270272 0.517539,0.565812 0.718444,0.890659 -0.0898993,0.0843689 -0.216911,0.236394 -0.500429,0.542785 -0.664487,0.718091 -2.0537,1.55399 -3.14205,1.504 -0.801058,-0.0367921 -1.50855,-0.273981 -1.76825,-1.33733 -0.267667,-1.09596 -0.191235,-1.91175 0,-2.48515zm1.16911 -0.122839c0.4287,0 0.776353,0.0350921 0.776353,0.0783749 0,0.0432828 -0.347653,0.0783749 -0.776353,0.0783749 -0.428689,0 -0.776342,-0.0350921 -0.776342,-0.0783749 0,-0.0432828 0.347653,-0.0783749 0.776342,-0.0783749z"/>
 </g>
</svg>