<svg xmlns="http://www.w3.org/2000/svg" xmlns:xlink="http://www.w3.org/1999/xlink" version="1.1" id="Calque_1" x="0px" y="0px" width="100px" height="100px" viewBox="0 0 100 100" enable-background="new 0 0 100 100" xml:space="preserve">
<g>
	<path d="M25.41,56.402c-3.989,0-7.23,3.246-7.23,7.234c0,3.987,3.241,7.231,7.23,7.231c3.99,0,7.231-3.244,7.231-7.231   C32.642,59.648,29.4,56.402,25.41,56.402z"/>
	<path d="M25.407,44.868c-10.349,0-18.769,8.418-18.769,18.769c0,10.349,8.42,18.771,18.769,18.771   c10.352,0,18.775-8.422,18.775-18.771C44.183,53.286,35.759,44.868,25.407,44.868z M25.41,74.207   c-5.828,0-10.569-4.741-10.569-10.57c0-5.831,4.741-10.573,10.569-10.573c5.829,0,10.57,4.742,10.57,10.573   C35.98,69.466,31.239,74.207,25.41,74.207z"/>
	<path d="M81.511,55.669c-7.372,0-13.365,5.996-13.365,13.367c0,7.372,5.993,13.371,13.365,13.371   c7.371,0,13.372-5.999,13.372-13.371C94.883,61.665,88.882,55.669,81.511,55.669z M81.511,75.327c-3.475,0-6.291-2.816-6.291-6.291   s2.816-6.289,6.291-6.289c3.476,0,6.293,2.814,6.293,6.289S84.986,75.327,81.511,75.327z"/>
	<path d="M70.678,56.941c-2.796-2.187-7.295-4.888-13.396-6.217v-1.695c6.85,1.404,11.791,4.424,14.752,6.813   c2.672-1.931,5.938-3.083,9.478-3.083c1.919,0,3.753,0.352,5.461,0.967c-0.179-4.19-0.697-8.604-2.093-9.132   c-6.871-2.559-15.823-4.089-23.043-4.735V26.553c0-1.868,0.93-2.301,1.062-2.354c0.889-0.25,1.405-1.174,1.153-2.062   c-0.251-0.885-1.164-1.396-2.061-1.149c-1.297,0.368-3.493,1.95-3.493,5.565v13.06c-0.511-0.029-0.993-0.047-1.473-0.066   L53.12,22.742c-0.152-0.652-0.676-1.15-1.335-1.266c-0.805-0.141-19.873-3.457-34.216-0.569c-0.903,0.182-1.49,1.062-1.309,1.966   s1.058,1.494,1.966,1.307c0.2-0.04,0.407-0.067,0.607-0.104L16.2,39.394c-0.004,0.032,0.007,0.064,0.003,0.098h-0.592   c-3.156,0-3.784,2.035-3.784,2.035l-1.934,4.846l1.607,0.799c3.759-3.181,8.612-5.108,13.906-5.108   c11.901,0,21.579,9.68,21.579,21.574c0,2.088-0.312,4.099-0.869,6.009H65.32c-0.007-0.221-0.033-0.438-0.033-0.662   C65.287,64.203,67.376,59.914,70.678,56.941z M77.052,45.237c0.426-0.167,0.91,0.043,1.084,0.472l1.354,3.451   c0.169,0.428-0.044,0.912-0.472,1.082c-0.101,0.037-0.202,0.057-0.306,0.057c-0.332,0-0.646-0.201-0.777-0.529l-1.355-3.451   C76.412,45.89,76.623,45.405,77.052,45.237z M73.117,45.237c0.423-0.167,0.912,0.043,1.082,0.472l1.355,3.451   c0.168,0.428-0.044,0.912-0.473,1.082c-0.101,0.037-0.203,0.057-0.305,0.057c-0.334,0-0.648-0.201-0.778-0.529l-1.354-3.451   C72.476,45.89,72.688,45.405,73.117,45.237z M33.953,40.319c-1.312-0.43-2.579-0.74-3.692-0.828H19.572l2.466-14.346h11.915V40.319   z M53.941,53.175l-6.047-0.007c-2.008-5.39-6.31-9.241-10.603-11.467V25.146h12.959l3.69,15.883V53.175z"/>
</g>
</svg>