<svg xmlns="http://www.w3.org/2000/svg" xmlns:xlink="http://www.w3.org/1999/xlink" version="1.1" id="Layer_1" x="0px" y="0px" width="74.844px" height="100px" viewBox="0 0 74.844 100" enable-background="new 0 0 74.844 100" xml:space="preserve">
<path d="M65.378,100h9.466L58.021,75.046c3.229-0.508,5.898-1.999,8.021-4.447c2.135-2.447,3.203-5.352,3.203-8.704v-48.75  c0-3.607-1.289-6.699-3.867-9.284C62.786,1.283,59.622,0,55.898,0H18.945c-3.75,0-6.901,1.283-9.479,3.861  c-2.578,2.584-3.867,5.677-3.867,9.284v48.75c0,3.353,1.094,6.289,3.294,8.802c2.188,2.514,4.831,3.959,7.93,4.35L0,100h9.466  l1.614-2.402h52.682L65.378,100z M59.753,66.921c-1.146,1.158-2.644,1.744-4.44,1.744c-1.68,0-3.099-0.586-4.258-1.744  c-1.159-1.166-1.745-2.637-1.745-4.447c0-1.673,0.586-3.118,1.745-4.349c1.159-1.224,2.578-1.843,4.258-1.843  c1.797,0,3.294,0.619,4.44,1.843c1.158,1.23,1.744,2.676,1.744,4.349C61.497,64.284,60.911,65.755,59.753,66.921z M13.724,14.375  c0-1.803,0.586-3.288,1.745-4.453c1.146-1.159,2.63-1.738,4.44-1.738h35.013c1.81,0,3.32,0.58,4.544,1.738  c1.237,1.166,1.85,2.65,1.85,4.453v15.599c0,1.81-0.612,3.294-1.85,4.453c-1.224,1.159-2.734,1.731-4.544,1.731H19.909  c-1.81,0-3.294-0.573-4.44-1.731c-1.159-1.159-1.745-2.644-1.745-4.453V14.375z M15.078,66.921  c-1.172-1.166-1.745-2.637-1.745-4.447c0-1.673,0.573-3.118,1.745-4.349c1.172-1.224,2.643-1.843,4.453-1.843  c1.667,0,3.086,0.619,4.258,1.843c1.159,1.23,1.745,2.676,1.745,4.349c0,1.811-0.586,3.281-1.745,4.447  c-1.172,1.158-2.591,1.744-4.258,1.744C17.721,68.665,16.25,68.079,15.078,66.921z M16.498,89.538l4.388-6.557h33.073l4.401,6.557  H16.498z"/>
</svg>