<svg xmlns="http://www.w3.org/2000/svg" xmlns:xlink="http://www.w3.org/1999/xlink" version="1.1" x="0px" y="0px" width="100px" height="100px" viewBox="0 0 100 100" enable-background="new 0 0 100 100" xml:space="preserve">
<g id="Captions">
	<rect x="-468" width="185" height="99"/>
	<rect x="-276" y="-36" width="100" height="30"/>
	<text transform="matrix(1 0 0 1 -210 -19.5)" fill="#000000" font-family="'Helvetica'" font-size="2.4">http://thenounproject.com</text>
	<text transform="matrix(1 0 0 1 -268.834 -24.5)"><tspan x="0" y="0" fill="#000000" font-family="'Helvetica-Bold'" font-size="6.1578">The Noun Project</tspan><tspan x="1.12" y="4.8" fill="#000000" font-family="'Helvetica-Bold'" font-size="4">Icon Template</tspan></text>
	<text transform="matrix(1 0 0 1 -454.5 10.5)" fill="#000000" font-family="'Helvetica-Bold'" font-size="6.1578">Reminders</text>
	<line fill="#000000" stroke="#FFFFFF" stroke-miterlimit="10" x1="-268" y1="-14.5" x2="-258" y2="-14.5"/>
	<line fill="#000000" stroke="#FFFFFF" stroke-miterlimit="10" x1="-455" y1="16.5" x2="-438" y2="16.5"/>
	<g>
		<g>
			<g>
				<rect x="-446.802" y="31.318" fill="#000000" width="8.721" height="8.642"/>
				<path fill="#000000" d="M-440.455,42.312h4.747v-4.703h-4.747V42.312z M-435.266,42.749h-5.63V37.17h5.63V42.749      L-435.266,42.749z M-442.221,44.062h8.279v-8.203h-8.279V44.062L-442.221,44.062z M-433.5,44.5h-9.163v-9.079h9.163V44.5      L-433.5,44.5z"/>
				<polygon fill="#000000" points="-442.149,44.133 -442.292,43.991 -434.013,35.787 -433.871,35.929     "/>
			</g>
		</g>
	</g>
	<rect x="-455" y="58" fill="none" width="35" height="32.5"/>
	<text transform="matrix(1 0 0 1 -455 60.1572)"><tspan x="0" y="0" fill="#000000" font-family="'Helvetica-Bold'" font-size="3">Strokes</tspan><tspan x="0" y="5" fill="#000000" font-family="'Helvetica'" font-size="2.4">Try to keep strokes at 4px</tspan><tspan x="0" y="10" fill="#000000" font-family="'Helvetica'" font-size="2.4">Minimum stroke weight is 2px</tspan><tspan x="0" y="14.5" fill="#000000" font-family="'Helvetica'" font-size="2.4">For thicker strokes use even </tspan><tspan x="0" y="17.5" fill="#000000" font-family="'Helvetica'" font-size="2.4">numbers: 6px, 8px etc.</tspan><tspan x="0" y="22" fill="#000000" font-family="'Helvetica-Bold'" font-size="2.4">Remember to expand strokes </tspan><tspan x="0" y="25" fill="#000000" font-family="'Helvetica-Bold'" font-size="2.4">before saving as an SVG </tspan></text>
	<rect x="-412.5" y="58" fill="none" width="35" height="32.5"/>
	<text transform="matrix(1 0 0 1 -412.5 60.1572)"><tspan x="0" y="0" fill="#000000" font-family="'Helvetica-Bold'" font-size="3">Size</tspan><tspan x="0" y="5" fill="#000000" font-family="'Helvetica'" font-size="2.4">Cannot be wider or taller than </tspan><tspan x="0" y="8.5" fill="#000000" font-family="'Helvetica'" font-size="2.4">100px (artboard size)</tspan><tspan x="0" y="13.5" fill="#000000" font-family="'Helvetica'" font-size="2.4">Scale your icon to fill as much of </tspan><tspan x="0" y="16.5" fill="#000000" font-family="'Helvetica'" font-size="2.4">the artboard as possible</tspan></text>
	<rect x="-370" y="58" fill="none" width="35" height="32.5"/>
	<text transform="matrix(1 0 0 1 -370 60.1572)"><tspan x="0" y="0" fill="#000000" font-family="'Helvetica-Bold'" font-size="3">Ungroup</tspan><tspan x="0" y="5" fill="#000000" font-family="'Helvetica'" font-size="2.4">If your design has more than one </tspan><tspan x="0" y="8" fill="#000000" font-family="'Helvetica'" font-size="2.4">shape, make sure to ungroup</tspan></text>
	<rect x="-326" y="58" fill="none" width="35" height="32.5"/>
	<text transform="matrix(1 0 0 1 -326 60.1572)"><tspan x="0" y="0" fill="#000000" font-family="'Helvetica-Bold'" font-size="3">Save as</tspan><tspan x="0" y="5" fill="#000000" font-family="'Helvetica'" font-size="2.4">Save as .SVG and make sure </tspan><tspan x="0" y="8" fill="#000000" font-family="'Helvetica'" font-size="2.4">&#8220;Use Artboards&#8221; is checked</tspan></text>
	<text transform="matrix(1.0074 0 0 1 -401.542 30.5933)" fill="#000000" font-family="'Helvetica'" font-size="2.5731">100px</text>
	<text transform="matrix(1.0074 0 0 1 -317 39)" fill="#000000" font-family="'Helvetica-Bold'" font-size="5.1462">.SVG</text>
	<rect x="-402.514" y="34.815" fill="#000000" width="10.261" height="10.185"/>
	<rect x="-402.477" y="31.766" fill="#000000" width="0.522" height="2.337"/>
	<rect x="-392.812" y="31.766" fill="#000000" width="0.523" height="2.337"/>
	<rect x="-403" y="32.337" fill="#000000" width="11.233" height="0.572"/>
	<g>
		<rect x="-359.805" y="33.844" fill="#000000" width="10.305" height="10.156"/>
		<rect x="-352.809" y="28.707" fill="#000000" width="3.308" height="3.261"/>
	</g>
	<rect x="-454.5" y="22.5" fill="#000000" stroke="#FFFFFF" stroke-miterlimit="10" width="30" height="30"/>
	<rect x="-412.5" y="22.5" fill="#000000" stroke="#FFFFFF" stroke-miterlimit="10" width="30" height="30"/>
	<rect x="-369.5" y="22.5" fill="#000000" stroke="#FFFFFF" stroke-miterlimit="10" width="30" height="30"/>
	<rect x="-325.5" y="22.5" fill="#000000" stroke="#FFFFFF" stroke-miterlimit="10" width="30" height="30"/>
</g>
<g id="Your_Icon">
	<path d="M-185.461,14.363h-1.207c0.143-0.083,0.244-0.237,0.244-0.422c0-0.269-0.207-0.487-0.462-0.487h-3.212   c0.211-0.008,0.38-0.189,0.38-0.415c0-0.231-0.175-0.418-0.394-0.418h-5.461c0.08-0.079,0.15-0.166,0.24-0.234   c-1.731-0.343-3.586-0.295-5.293-0.22c-4.148,0.18-7.825,0.307-11.901-0.457c-0.127-0.078-0.268-0.135-0.429-0.137   c-2.298-0.014-4.649-0.49-6.951-0.438c-0.015-0.007-0.021-0.019-0.035-0.026c-1.19-0.564-2.53-0.598-3.694-1.233   c-0.647-2.503,1.205-6.923-0.538-7.796c0.654,2.045,0.377,5.726-1.487,6.243c0.078-0.969-1.153-0.629-1.189-1.486   c0.357-0.336,0.539-0.848,1.487-0.595c0.36-0.889-1.282-1.248-0.595-1.486c0.846-0.051,0.58,1.005,1.784,0.594   c-0.764-1.432-0.217-1.382,0-2.973c-1.265-0.984-2.427-0.33-3.866-0.892c0.38-0.512,1.779-0.006,1.785-0.892   c-0.231-0.065-0.346-0.25-0.298-0.595c-4.204,0.266-3.398,5.536-4.241,9.163c-1.059,0.371-2.121,0.713-3.265,0.922   c-2.062,0.378-4.185,0.453-6.266,0.67c-0.129,0.011-0.233,0.054-0.319,0.115c-1.448,0.157-2.893,0.337-4.337,0.526   c-0.857,0.06-1.712,0.139-2.571,0.188c-3.234,0.188-7.54-0.497-10.829,0.516c-0.272-0.197-0.554-0.375-0.867-0.497   c-0.047-0.018-0.115-0.023-0.171-0.036c-0.052-0.042-0.111-0.072-0.178-0.072h-5.73c-0.187,0-0.337,0.187-0.337,0.418   c0,0.225,0.145,0.406,0.325,0.415h-2.744c-0.218,0-0.394,0.218-0.394,0.486c0,0.185,0.086,0.34,0.208,0.422h-1.03   c-0.218,0-0.394,0.217-0.394,0.486c0,0.27,0.176,0.487,0.394,0.487h1.241c-0.178,0.047-0.313,0.232-0.313,0.467   c0,0.269,0.176,0.487,0.393,0.487h1.209c-0.036,0.073-0.062,0.154-0.062,0.246c0,0.27,0.176,0.487,0.393,0.487h7.864   c0.004,0,0.007-0.002,0.011-0.002c0.463,0.087,0.93,0.059,1.41,0.047c0.195-0.005,0.337-0.074,0.43-0.179   c0.052-0.003,0.104-0.001,0.156-0.007c1.368,2.399,2.569,4.959,4.75,6.541c5.554-0.804,10.077,0.2,13.508,2.286   c-0.016,4.186-1.167,8.254-1.131,12.459c0.018,2.209,0.48,4.514,2.245,5.468c-0.474,4.089-2.364,8.26,0.096,12.025   c0.011,0.017,0.028,0.026,0.041,0.044c0.003,0.016,0.004,0.031,0.007,0.047c0.086,0.474,0.423,0.642,0.775,0.615   c-0.27,7.084-1.196,14.549-1.319,20.569c-1.327,0.26-2.437,0.738-3.61,0.893v2.676c-1.174-0.237-1.397,0.443-2.336,0.299   c-0.217,6.917-1.554,12.971-1.74,19.918h37.756c-0.456-6.775-1.135-13.334-1.782-19.918c-2.04,0.453-1.877-1.294-1.784-2.975   c-1.152-0.557-2.627-0.741-4.196-0.796c-0.121-4.226-0.317-8.44-0.811-12.635c-0.012-1.589-0.016-3.178-0.015-4.767   c0-0.165-0.046-0.298-0.109-0.415c-0.013-0.477-0.051-0.952-0.072-1.427c1.39-0.998,0.539-5.038-0.245-7.464   c-0.047-0.396-0.092-0.76-0.129-1.087c0.348-0.187,0.634-0.533,0.779-0.886c0.783-1.899,0.348-4.133,0.091-6.1   c-0.426-3.265-0.31-6.618-0.36-9.905c-0.029-1.931,0.29-4.63-0.129-6.866c0.015-0.016,0.032-0.029,0.049-0.042   c4.31-1.547,10.081-1.631,15.255-2.314c1.445-1.2,2.139-3.15,2.958-4.977c0.003,0,0.004,0.001,0.005,0.001h9.211   c0.253,0,0.459-0.218,0.459-0.488c0-0.092-0.029-0.172-0.072-0.246h1.418c0.253,0,0.461-0.218,0.461-0.487   c0-0.235-0.159-0.42-0.367-0.467h1.452c0.255,0,0.461-0.218,0.461-0.487C-185,14.581-185.206,14.363-185.461,14.363z"/>
	<g>
		<ellipse cx="-80.396" cy="28.876" rx="2.646" ry="2.604"/>
	</g>
	<g>
		<ellipse cx="-93.396" cy="33.876" rx="2.646" ry="2.604"/>
	</g>
	<g>
		<ellipse cx="-93.818" cy="27.86" rx="2.646" ry="2.604"/>
	</g>
	<g>
		<path d="M-53.075,99.252c0.584-0.398,1.05-1.104,1.4-1.635c-1.283-0.663-2.8-0.419-4.316-0.552    c0.35-0.133,0.699-0.408,0.933-0.541c-2.1-0.266-4.2,0.393-6.183,0.658c0.816-1.328,2.333-2.127,3.033-3.588    c-3.851,0.133-7.233,2.787-10.967,3.716c0.467-1.858,2.333-4.116,1.75-5.975c-2.566,1.726-4.316,4.912-7,6.239    c0-0.53-0.351-1.46-0.351-2.124c-0.233,0-0.116,0.266-0.35,0.133c-0.583-2.125-0.467-4.515-1.05-6.507    c-0.934,1.992-1.283,4.382-2.566,6.241c-0.467-1.461-0.233-3.319-0.934-4.515c-0.646,1.176-1.082,2.552-1.615,3.819l-2.58-69.711    c0.225,0.053,0.458,0.09,0.7,0.09c1.617,0,2.926-1.273,2.961-2.856c1.338,1.263,2.459,2.768,3.34,4.457    c0.834-0.771,1.579-1.592,2.224-2.453c-0.174,1.584-0.526,6.881-0.297,8.084c0.93-0.572,1.787-1.207,2.562-1.896    c-0.5,1.561-2.12,6.839-2.205,8.103c0.579-0.404,1.128-0.834,1.639-1.291c-0.455,1.418-2.126,4.86-2.221,5.287    c2.1,0.416-3.505,8.887-4.797,10.661c3.175-2.452,6.597-6.536,8.811-10.694c6.456-12.127,0.369-20.987-7.428-24.071    c-1.546-0.612-3.173-0.856-4.817-0.794c4.485-1.096,9.1-0.702,13.397,0.936c0.218-1.391,0.301-2.757,0.248-4.081    c1.148,1.629,5.225,6.898,6.472,7.848c0.484-1.279,0.84-2.56,1.065-3.825c0.791,1.868,3.539,8.129,4.509,9.387    c0.263-0.842,0.47-1.685,0.616-2.521c0.718,1.698,1.872,6.271,2.133,6.748c2.523-1.281,3.819,11.162,3.97,13.862    c1.232-4.839,1.355-11.413,0.162-17.093c-3.48-16.565-17.217-20.057-27.886-16.747c-2.683,0.833-5.005,2.314-6.93,4.259    l-0.073-0.248l-0.423-13.924l-0.424,11.082l-3.825-12.855l3.515,15.655c-1.559-2.567-3.709-4.646-6.426-5.979    c-9.578-4.7-23.21-3.127-29.294,12.69c-2.086,5.424-3.071,11.905-2.713,16.829c0.596-2.633,3.913-14.694,6.096-13.093    c0.327-0.434,2.19-4.774,3.157-6.346c-0.002,0.842,0.055,1.698,0.162,2.562c1.133-1.105,4.792-6.889,5.856-8.621    c0.001,1.276,0.125,2.583,0.37,3.906c1.344-0.763,6.1-5.393,7.464-6.839c-0.273,1.293-0.423,2.649-0.449,4.047    c4.766-1.125,9.648-0.756,14.026,1.391c0.083,0.041,0.16,0.092,0.243,0.133c-2.706-0.902-5.551-1.181-8.402-0.677    c-11.243,1.987-21.945,11.693-17.025,28.605c1.688,5.801,4.998,11.803,8.467,15.681c-1.179-2.561-6.065-14.642-3.163-14.653    c0.002-0.563-1.181-5.323-1.359-7.229c0.539,0.702,1.137,1.38,1.783,2.035c0.265-1.619-0.303-8.687-0.499-10.784    c0.818,1.062,1.766,2.074,2.824,3.025c0.663-1.466,1.78-8.247,2.023-10.292c0.597,1.245,1.337,2.466,2.21,3.646    c2.524-2.899,5.645-5.141,9.208-6.466c-0.005,0.067-0.021,0.132-0.021,0.2c0,0.857,0.419,1.613,1.058,2.101    c-0.643,0.536-1.058,1.326-1.058,2.218c0,1.587,1.289,2.874,2.893,2.914l-1.796,66.713c-0.062,0.544-0.137,1.084-0.295,1.578    c-1.283-1.859-1.633-4.249-2.566-6.241c-0.583,1.992-0.467,4.382-1.05,6.507c-0.233,0.133-0.116-0.133-0.35-0.133    c0,0.664-0.351,1.594-0.351,2.124c-2.684-1.327-4.434-4.515-7-6.24c-0.583,1.858,1.283,4.116,1.75,5.975    c-3.733-0.929-7.116-3.585-10.967-3.718c0.7,1.461,2.217,2.258,3.033,3.586c-1.982-0.266-4.083-0.93-6.183-0.664    c0.233,0.133,0.583,0.398,0.933,0.531c-1.517,0.133-3.033-0.133-4.316,0.53c0.351,0.531,0.816,1.195,1.4,1.594    c-2.045,0.443-4.411,0.149-6.496,0.628c0.011,0.039,0.021,0.203,0.028,0.203h77.551C-48.306,99-50.877,99.729-53.075,99.252z"/>
	</g>
	<path fill="none" d="M35.837,63.438c-0.166,0.046-0.336,0.076-0.503,0.093c-0.144,0.014-0.281,0.016-0.416,0.008   c-0.016,0.21-0.033,0.421-0.063,0.63c-0.089,0.602-0.386,1.125-0.971,1.417c1.262,0.136,2.523,0.236,3.796,0.273   c-0.222-0.292-0.417-0.603-0.612-0.913C36.719,64.394,36.295,63.905,35.837,63.438z"/>
	<path fill="none" d="M57.29,91.152c1.056,0.453,2.217,0.64,3.298,1.03c-0.496-0.458-0.997-0.909-1.533-1.312   c-1.096-0.825-2.285-1.204-3.604-1.428c0.104,0.283,0.213,0.566,0.322,0.849C56.261,90.604,56.748,90.919,57.29,91.152z"/>
	<path fill="none" d="M48.38,51.692c0.33-0.814,0.931-1.605,1.318-2.292c0.573-1.014,1.204-2.035,1.808-3.066   c-0.05,0.073-0.11,0.143-0.199,0.201c-0.882,0.586-1.797,0.251-2.358-0.505c-0.056-0.073-0.086-0.146-0.105-0.219   c-0.435-0.087-0.854-0.282-1.192-0.561c-0.144-0.115-0.282-0.257-0.402-0.411c-0.116,0.14-0.22,0.293-0.307,0.462   c-0.333,0.629-0.534,1.464-0.826,2.08c0.258,0.475,0.531,0.944,0.802,1.418C47.459,49.747,47.827,50.758,48.38,51.692z"/>
	<path fill="none" d="M35.656,93.293c0.135-0.008,0.269-0.021,0.402-0.028c2.539-0.407,5.052-0.965,7.567-1.546   c0.606-0.59,1.086-1.284,1.476-2.025c-2.101,0.631-4.312,0.813-6.385,1.529C37.455,91.658,36.602,92.521,35.656,93.293z"/>
	<path fill="none" d="M59.682,65.288c0.007,0.023,0.018,0.047,0.006,0.072c-0.008,0.016,0.101,0.031,0.092,0.047   c-0.006,0.012,0.189,0.025,0.213,0.039c0-0.004,0.004-0.007,0.004-0.011C59.88,65.406,59.771,65.361,59.682,65.288z"/>
	<polygon fill="none" points="4.649,23.189 4.649,23.189 4.65,23.189  "/>
	<path fill="none" d="M31.16,62.838c-0.733-0.49-1.464-1.012-2.341-1.184c-0.355-0.072-0.72-0.111-1.086-0.121   c-0.097-0.053-0.192-0.108-0.28-0.171c-0.374-0.133-0.706-0.343-0.954-0.609c-0.825-0.154-1.639-0.39-2.421-0.782   c-0.104-0.051-0.199-0.111-0.301-0.167c-0.484,0.43-0.533,1.132-0.158,1.624c0.096,0.127,0.199,0.247,0.307,0.366   c-0.596,0.243-1.182,0.581-1.699,0.792c-0.052,0.021-0.104,0.04-0.155,0.06c-0.027,0.155-0.066,0.311-0.127,0.459   c-0.007,0.171-0.082,0.34-0.22,0.465c-0.022,0.021-0.05,0.037-0.074,0.053c-0.005,0.015-0.015,0.026-0.021,0.041   c0.565,0.216,1.165,0.363,1.807,0.414c1.643,0.13,3.186-0.41,4.689,0.45c0.921,0.53,1.975,0.673,3.05,0.772   c-0.293-0.275-0.493-0.645-0.537-1.107C30.588,63.663,30.804,63.181,31.16,62.838z"/>
	<polygon fill="none" points="59.996,65.436 60,65.437 60,65.427  "/>
	<path fill="none" d="M48.881,56.365c-0.741-1.235-1.58-2.461-2.346-3.684c-0.509-0.813-1.428-3.097-2.119-4.625   c-0.247,0.042-0.503,0.045-0.76-0.009c-0.955-0.204-1.934-1.02-1.965-1.945c-0.016-0.44,0.094-0.897,0.19-1.345   c-0.105-0.1-0.214-0.196-0.326-0.283c-0.009-0.007-0.019-0.012-0.027-0.02c-0.168,0.554-0.298,1.141-0.707,1.583   c-0.894,0.964-2.377,1.229-3.661,0.825c-0.182-0.058-0.454-0.288-0.715-0.481c0.177,0.201,0.324,0.424,0.428,0.665   c0.392,0.908-0.092,1.771-0.899,2.281c0.096-0.023,0.187-0.045,0.262-0.059c0.891-0.165,1.83,0.03,2.56,0.507   c0.809,0.53,1.35,1.489,1.27,2.385c0.571-0.291,1.232-0.445,1.877-0.407c0.503,0.03,0.954,0.255,1.235,0.601   c0.118,0.024,0.24,0.052,0.362,0.088c0.333,0.1,0.595,0.238,0.797,0.405c0.145-0.086,0.313-0.137,0.479-0.137   c0.226,0,0.446,0.083,0.605,0.23c0.095,0.084,0.154,0.18,0.193,0.281c0.018,0.019,0.035,0.038,0.053,0.055   c0.332,0.302,0.332,0.808,0,1.11c-0.237,0.218-0.593,0.275-0.896,0.178c-0.177,0.477-0.548,0.92-1.052,1.209   c0.24,0.206,0.46,0.454,0.636,0.727c0.2-0.065,0.414-0.094,0.62-0.064c-0.021-0.078-0.036-0.159-0.039-0.249   c-0.012-0.337,0.244-0.626,0.575-0.737c0.271-0.186,0.671-0.211,0.966-0.054c0.419,0.226,0.521,0.694,0.307,1.074   c-0.16,0.285-0.373,0.481-0.705,0.596c-0.051,0.016-0.106,0.026-0.163,0.03c0.001,0.002,0.003,0.003,0.004,0.005   c0.155,0.143,0.257,0.337,0.245,0.543c-0.006,0.131-0.034,0.248-0.071,0.363c-0.003,0.023-0.004,0.044-0.008,0.067   c-0.064,0.323-0.291,0.552-0.576,0.684c1.106,0.57,2.128,1.074,3.11,1.18c0.257-0.352,0.548-0.682,0.884-0.978   c-0.01-0.072-0.013-0.149-0.01-0.23C49.531,57.951,49.279,57.025,48.881,56.365z"/>
	<path fill="none" d="M59.62,61.373c-0.173,0.054-0.353,0.08-0.544,0.109c-0.569,0.084-0.763-0.703-0.359-1.017   c0.159-0.123,0.322-0.283,0.525-0.316C59.326,60.132,59.409,60,59.494,60c0.016,0,0.013,0,0.025,0c0.009,0,0.02,0.116,0.027,0.106   c0.007-0.007,0.014,0.117,0.02,0.11c0.041-0.052,0.069-0.116,0.081-0.2c0.038-0.274,0.054-0.552,0.079-0.827   C59.589,59.088,59.433,59,59.414,59h-0.013c-0.34,0-0.676,0.279-1.007,0.395c-0.408,0.576-1.045,1.105-1.598,1.56   c-1.046,0.856-1.647,1.759-2.007,2.992c-0.031,0.107-0.058,0.216-0.084,0.326c0.486-0.184,0.99-0.339,1.564-0.423   c0.982-0.145,1.964-0.195,2.95-0.219c-0.23-0.264-0.223-0.653,0.05-0.896c0.129-0.112,0.314-0.178,0.483-0.193   c-0.025-0.061-0.029-0.122-0.051-0.189C59.604,62.048,59.59,61.706,59.62,61.373z"/>
	<path fill="none" d="M60.756,54.727c-1.3-0.512-3.088-1.3-2.182-2.339c0.439-0.505,1.205-0.833,1.934-1.192   c0.305-0.149,0.522-0.311,0.696-0.481c-0.214-0.423-0.271-0.845-0.184-1.274c-0.138-0.001-0.276-0.017-0.417-0.052   c-0.191-0.047-0.362-0.111-0.521-0.181c-0.596,0.607-1.024,1.336-1.428,2.062c-0.669,1.203-1.254,2.448-1.906,3.66   c-0.44,0.818-0.804,1.656-1.132,2.503c1.314-0.494,2.463-0.217,3.882-0.372c0.945-0.101,1.902-0.107,2.857-0.051   c-0.018-0.393,0.076-0.778,0.077-1.178C62.435,55.28,61.441,54.997,60.756,54.727z"/>
	<path fill="none" d="M56.702,50.891c0.214-0.414,1.57-2.377,1.79-2.788c0.474-0.883,0.01-0.709,0.271-0.927   c0.011-0.446,0.134-0.915,0.352-1.365c-0.073-0.125-0.154-0.246-0.245-0.359c-0.732,0.468-1.318,1.422-2.009,1.887   c-1.302,0.873-3.024,0.789-3.94-0.462c-0.007-0.01-0.012-0.021-0.019-0.032c-0.438,0.718-0.887,1.431-1.297,2.163   c-0.348,0.62-0.642,1.255-1.007,1.869c-0.289,0.481-1.032,1.393-0.896,1.969c0.055,0.227-0.009,0.422-0.135,0.567   c0.514,0.764,0.988,1.543,1.513,2.303c0.215,0.313,0.952,1.119,1.155,1.447c1.037-1.729,1.475-2.592,2.792-4.182   C55.156,52.825,56.534,50.994,56.702,50.891z"/>
	<path fill="none" d="M46.313,61.626c-0.703-0.527-1.816-1.189-2.973-1.793c-0.525,0.211-1.149,0.191-1.814-0.204   c-0.206-0.125-0.397-0.271-0.569-0.449c-0.057,0.086-0.085,0.222-0.098,0.346c0.167,0.21,0.312,0.43,0.359,0.511   c0.383,0.7,0.169,1.433-0.325,1.919c0.464,0.006,0.85,0.52,0.85,0.942c0,0.429-0.391,1.103-0.859,1.103h-0.246   c-0.127,0-0.247-0.033-0.358-0.08c0.158,0.398-0.016,0.918-0.521,1.049C39.833,64.983,39.908,65,40,65h-0.494   c0.092,0,0.176-0.012,0.252-0.031C39.018,64.816,39.092,64,40,64h-0.494c0.126,0,0.235-0.575,0.334-0.538   c-0.037-0.089-0.062-0.781-0.062-0.882c0-0.044,0.006-0.087,0.015-0.132c-0.464,0.157-0.97,0.209-1.428,0.119   c-0.326-0.065-0.624-0.182-0.892-0.337c-0.109,0.145-0.221,0.273-0.326,0.396c0.254,0.258,0.497,0.522,0.707,0.802   c0.505,0.671,0.877,1.415,1.441,2.049c0.219,0.243,0.537,0.448,0.893,0.628c2.018,0.762,4.188,1.252,6.045,2.308   c0.023,0.013,0.044,0.027,0.066,0.04c-0.002-0.218-0.003-0.436-0.005-0.653c-0.289-2.051-0.301-4.102,0.038-6.147   C46.325,61.641,46.319,61.634,46.313,61.626z"/>
	<path d="M5.811,53.264c-0.112-0.2-0.411-0.354-0.66-0.338c-0.153,0.01-0.354,0.031-0.482,0.119   c-0.008,0.005-0.016,0.012-0.022,0.016c-0.313,0.025-0.588,0.222-0.671,0.496c-0.088,0.281,0.049,0.633,0.351,0.769   c0.142,0.065,0.266,0.14,0.422,0.184c0.042,0.012,0.089,0.02,0.136,0.025c0.083,0.029,0.173,0.047,0.268,0.047   c0.082,0,0.162-0.016,0.235-0.038c0.234-0.025,0.449-0.148,0.571-0.332c0.144-0.22,0.124-0.465,0-0.688   C5.907,53.437,5.859,53.351,5.811,53.264z"/>
	<path d="M99.741,24.492c-0.352-0.811-0.828-1.445-1.609-1.974c-0.133-0.09-0.27-0.17-0.409-0.245   c0.124-0.088,0.216-0.211,0.268-0.344c0.15-0.136-0.043-0.372-0.115-0.562c1.021-0.051,1.007-1.355-0.055-1.355   c0,0-0.419,0.329-0.428,0.661c-0.128-0.099-0.124-0.176-0.301-0.224c-0.42-0.112-0.788-0.028-1.155,0.176   c-0.459,0.255-0.419,0.799-0.092,1.084c-0.941-0.103-1.897,0.041-2.785,0.413c-0.575,0.24-1.001,0.623-1.494,0.967   c-0.048,0.033-0.147,0.035-0.194,0.03c-0.041-0.003-0.071-0.004-0.104-0.006c-0.551-0.939-0.23-1.965-0.62-2.937   c-0.028-0.073-0.061-0.144-0.096-0.213c0.207-0.124,0.346-0.333,0.346-0.568c0-0.218-0.122-0.414-0.306-0.538   c-0.142-0.165-0.359-0.274-0.606-0.274c-0.217,0-0.416,0.087-0.558,0.223c-0.674-0.385-1.511-0.524-2.331-0.285   c-0.038,0.011-0.078,0.027-0.116,0.041c0.012-0.046,0.024-0.09,0.031-0.14c0.1-0.661-0.062-1.244-0.36-1.793   c0.019-0.068,0.037-0.137,0.054-0.204c0.058,0.022,0.114,0.044,0.171,0.061c0.97,0.299,2.114,0.101,2.727-0.672   c0.085-0.108,0.159-0.224,0.22-0.345c0.135,0.053,0.287,0.067,0.435,0.048c-0.038,0.21,0.029,0.435,0.209,0.595   c0.237,0.21,0.529,0.357,0.876,0.272c0.391-0.096,0.574-0.416,0.575-0.754c0.001-0.373-0.348-0.682-0.765-0.682   c-0.019,0-0.036,0.003-0.054,0.004c0.003-0.003,0.007-0.006,0.012-0.009c0.302-0.257,0.29-0.706,0-0.964   c-0.299-0.268-0.781-0.257-1.082,0c-0.002,0.001-0.004,0.004-0.008,0.005c-0.009,0.006-0.017,0.012-0.027,0.018   c-0.108-0.461-0.367-0.887-0.783-1.188c-0.817-0.59-2.085-0.786-3.071-0.439c-0.158,0.056-0.275,0.143-0.358,0.246   c-1.175-1.112-3.06-1.689-4.727-1.755c-0.055-0.003-0.113,0-0.172-0.001c-0.457-0.605-1.093-1.178-1.782-1.635   c-0.248-0.406-0.511-0.776-0.744-1.086c-0.332-0.441-0.817-0.85-1.372-1.191c0.095-0.399-0.047-0.777-0.326-1.092   c-0.005-0.129-0.012-0.258-0.016-0.386c-0.058-1.738-1.45-2.623-2.901-2.671c-0.33-0.321-0.927-0.299-1.238,0.032   c-0.057,0.062-0.107,0.125-0.159,0.189c-0.936,0.343-1.698,1.082-1.87,2.212c-0.327-0.051-0.68-0.064-1.033-0.037   c-0.288-0.007-0.609,0.018-0.967,0.078c-0.015,0.002-0.031,0.008-0.048,0.011c-1.081-0.3-2.288-0.269-3.521-0.265   c-0.177-1.129-0.757-2.199-1.926-2.787C61.038,1.261,59,1.614,57.39,2.914c-0.447,0.358-0.871,0.734-1.285,1.114   c-0.668-0.637-1.535-1.096-2.562-1.106c-2.37-0.024-4.055,1.859-3.749,3.705c-0.842-0.842-2.04-1.416-3.259-1.443   c0.215-0.212,0.249-0.564,0.091-0.805c-0.145-0.248-0.449-0.484-0.785-0.452c-0.16,0.015-0.312,0.034-0.445,0.122   c-0.007,0.003-0.013,0.006-0.018,0.008c-0.175,0.035-0.326,0.121-0.438,0.238c-0.265,0.148-0.376,0.481-0.297,0.739   c0.062,0.201,0.233,0.366,0.445,0.448c-0.669,0.37-1.206,1.01-2.043,0.917c-0.162-0.018-0.322-0.045-0.48-0.077   c0.052-0.09,0.083-0.191,0.083-0.299c0-0.373-0.349-0.682-0.766-0.682c-0.338,0-0.664,0.03-0.925,0.244   c-0.091,0.073-0.158,0.171-0.202,0.279c-0.185-0.043-0.368-0.08-0.56-0.108c0.015-0.01,0.027-0.02,0.042-0.029   c0.301-0.247,0.293-0.717,0-0.965c-0.456-0.385-1.139-0.51-1.71-0.256c-0.296,0.133-0.542,0.447-0.52,0.751   c0.014,0.213,0.094,0.409,0.239,0.57c-1.68,0.336-3.23,1.339-3.98,2.718c-0.104-0.087-0.232-0.152-0.379-0.188   c-0.009-0.004-0.016-0.007-0.025-0.011c-0.075-0.032-0.15-0.062-0.229-0.089c-0.219-0.127-0.472-0.186-0.743-0.088   c-0.347,0.124-0.544,0.338-0.706,0.627c-0.187,0.333-0.104,0.736,0.274,0.934c0.153,0.08,0.344,0.104,0.521,0.077   c0.01,0.335,0.255,0.664,0.738,0.664c0.014,0,0.025-0.002,0.037-0.002c-0.034,0.438-0.05,0.876-0.118,1.308   c-0.117,0.142-0.221,0.291-0.291,0.467c-0.071,0.177-0.087,0.358-0.067,0.535c-0.045,0.018-0.514,0.227-0.725,0.288   c-0.511,0.148-1.115,0.38-1.652,0.39c-0.364-0.622-0.595-1.414-0.921-2.102C29.927,11.233,29.867,11,29.805,11h0.126   c0.667,0,1.013-0.749,0.541-1.169c-0.193-0.172-0.388-0.321-0.647-0.406c-0.194-0.064-0.419-0.058-0.623-0.058   c-0.143,0-0.277,0.037-0.392,0.1c-0.564-0.684-1.261-1.266-2.092-1.585c0.038-0.023,0.074-0.05,0.11-0.081   c0.044-0.04,0.081-0.086,0.112-0.135c0.065-0.031,0.128-0.07,0.18-0.125c0.121-0.13,0.238-0.267,0.269-0.442   c0.008-0.061,0.015-0.108,0.02-0.156c0.125-0.251,0.101-0.537-0.144-0.755c-0.231-0.205-0.645-0.276-0.928-0.107   c-0.126,0.077-0.247,0.159-0.366,0.243c-0.008,0.003-0.015,0.008-0.021,0.013c-0.02,0.012-0.04,0.021-0.061,0.032   c-0.036,0.012-0.076,0.026-0.099,0.033c-0.3,0.09-0.595,0.347-0.561,0.658c0.021,0.199,0.076,0.425,0.255,0.566   c-0.208-0.008-0.421-0.002-0.64,0.023c-1.299,0.146-2.611,0.72-3.196,1.815c-0.469,0.88-0.396,1.808-0.295,2.749   c0.055,0.511,0.33,1.429-0.526,1.349s-1.561-1.102-2.255-1.497c-4.34-2.471-9.041,3.724-6.09,6.835   c-0.084,0.156-0.168,0.312-0.253,0.469c-0.028-0.001-0.427-0.006-0.456-0.005C11.637,19.369,11,19.389,11,19.41v-0.014   c0-0.131,0.344-0.254,0.303-0.368c0.125-0.252,0.259-0.562,0.033-0.763c-0.271-0.242-0.606-0.256-0.904-0.062   c-0.256,0.004-0.454,0.111-0.596,0.329c-0.171,0.261-0.095,0.629,0.152,0.837c0.021,0.048,0.059,0.094,0.096,0.141   c0.1,0.128,0.215,0.245,0.338,0.356c-0.003,0.004,0.002,0.005-0.002,0.007c-0.012,0.021-0.018,0.041-0.029,0.061   c-0.088-0.033-0.183-0.052-0.284-0.052c-0.064,0-0.127,0.004-0.186,0.01c-0.035-0.005-0.071-0.01-0.105-0.01   c-0.168,0-0.325,0.052-0.453,0.137c0.056-0.137,0.06-0.288,0.015-0.428c0.021-0.062,0.037,0.014,0.037-0.054   C9.414,19.167,9.065,19,8.647,19H8.355C7.939,19,8,19.024,8,19.396v0.102c0,0.209-0.119,0.385,0.047,0.535   c0.088,0.077,0.074,0.156,0.163,0.235c0.266,0.238,0.642,0.258,0.938,0.065c-0.03,0.073-0.075,0.15-0.074,0.231   c0,0.053-0.007,0.103-0.001,0.151c0.002,0.011-0.054,0.022-0.054,0.032C9.027,20.794,9,20.84,9,20.884v0.004   c0,0.048,0.09,0.096,0.117,0.144c0.057,0.105,0.184,0.192,0.276,0.275c0.294,0.262,0.802,0.262,1.095,0   c0.102-0.09,0.171-0.203,0.203-0.319c0.022-0.025,0.046-0.052,0.066-0.081c0.112,0.046,0.236,0.075,0.364,0.081   c0.044,0.001,0.084-0.002,0.125-0.008c-0.411,0.569-0.892,1.087-1.507,1.502C9.121,22.9,8.483,23.355,7.95,23.88   c-0.01-0.019-0.017-0.038-0.029-0.055c-0.158-0.218-0.421-0.368-0.722-0.357c-0.169,0.006-0.339,0.04-0.503,0.075   c-0.397,0.087-0.633,0.474-0.54,0.819c-0.039,0.2-0.021,0.404,0.081,0.586c-0.022,0-0.044-0.004-0.066,0   c-0.179,0.02-0.356,0.035-0.505,0.134c-0.016,0.008-0.027,0.02-0.044,0.03C5.314,25.2,5.084,25.457,5.084,25.76   c0,0.287,0.21,0.537,0.499,0.635c0.049,0.108,0.098,0.214,0.14,0.325c0.036,0.089,0.085,0.169,0.149,0.239   c-0.051,0.146-0.031,0.303,0.035,0.445c-0.112,0.054-0.504,0.114-0.59,0.185c-0.231,0.188-0.48,0.43-0.565,0.688   C4.698,28.123,4.613,28,4.421,28H4.274c-0.416,0-0.765,0.129-0.765,0.501C3.51,28.872,3.858,29,4.274,29h0.146   c0.302,0,0.561,0.18,0.685-0.048c0.001,0.05,0,0.27,0.005,0.321c0.028,0.267,0.207,0.62,0.482,0.727   c0.02,0.215,0.087,0.468,0.208,0.667c0.051,0.188,0.133,0.385,0.249,0.545c-0.369,0.107-0.853,0.239-1.217,0.319   c-1.738,0.386-3.905,0.916-4.491,2.649c-0.523,1.545,0.244,2.922,1.158,4.155C2.066,39.103,2,39.75,2,40.662v0.002   c0,0.124-0.377,0.282-0.662,0.49c-1.334,0.977-1.414,2.993-0.485,4.257c0.285,0.39,0.712,0.756,1.133,1.058   c-0.103,0.021-0.177,0.038-0.277,0.06c-0.404,0.087-0.623,0.487-0.518,0.836c-0.046,0.002-0.085,0.007-0.131,0.015   c-0.247,0.045-0.416,0.205-0.525,0.395c-0.227,0.116-0.378,0.325-0.378,0.579c0,0.36,0.349,0.698,0.766,0.682   c0.11-0.004,0.22-0.019,0.323-0.047c0.28,0.082,0.579,0.045,0.801-0.153c0.173-0.153,0.271-0.408,0.209-0.625   c0.014-0.08,0.012-0.16-0.002-0.24c0.017,0.025,0.031,0.053,0.05,0.079c0.275,0.383,0.825,0.439,1.201,0.138   c-0.126,0.101,0.014-0.007,0.04-0.023c0.067-0.046,0.136-0.093,0.204-0.14c0.066-0.054,0.127,0.258,0.181,0.193   C4.206,48.088,4.487,48,4.559,48h0.037c0.77,0,1.371-0.716,1.808-1.139c0.161,0.056,0.323-0.078,0.489-0.028   c0.995,0.301,2.009,0.423,2.885,0.958c0.271,0.164,0.531,0.285,0.76,0.495c-0.037,0.034-0.07,0.041-0.093,0.057   c-0.009,0.006-0.014-0.002-0.021,0.001c-0.014,0.01-0.033,0.015-0.055,0.029c-0.112,0.069-0.227,0.134-0.341,0.201   c-0.241,0.138-0.485,0.272-0.729,0.409c-1.197,0.671-2.338,1.393-2.905,2.578c-0.204-0.18-0.457-0.309-0.748-0.356   c-0.41-0.067-0.823,0.097-0.941,0.476c-0.047,0.154-0.022,0.327,0.055,0.479c-0.045,0.039-0.088,0.084-0.122,0.139   c-0.198,0.299-0.103,0.772,0.273,0.931c0.336,0.145,0.742,0.256,1.11,0.129c0.068-0.023,0.136-0.055,0.201-0.088   c0.244,1.078,1.053,2.112,1.921,2.774c0.044,0.035,0.091,0.067,0.137,0.099c-0.126,0.249-0.21,0.512-0.257,0.781   c-0.1-0.028-0.205-0.046-0.313-0.04c-0.377,0.016-0.74,0.154-1.022,0.374c-0.221,0.17-0.4,0.48-0.368,0.749   c0.021,0.169,0.043,0.313,0.149,0.465c0.107,0.152,0.203,0.226,0.361,0.33c0.23,0.151,0.592,0.195,0.863,0.12   c0.092-0.025,0.18-0.062,0.264-0.105c0.092-0.017,0.181-0.043,0.264-0.083c0.116,0.296,0.266,0.575,0.451,0.829   c0.083,0.115,0.177,0.223,0.273,0.326c-0.122,0.201-0.199,0.438-0.209,0.716c-0.009,0.208,0.008,0.408,0.039,0.601   c-0.223,0.696-0.256,1.448-0.115,2.095c0.007,0.031,0.019,0.061,0.027,0.095c-0.242,0.027-0.425,0.144-0.577,0.323   c-0.044,0.04-0.086,0.084-0.121,0.137c-0.199,0.302-0.1,0.771,0.274,0.934c0.068,0.029,0.136,0.053,0.203,0.071   C8.6,64.953,8.767,65.01,8.939,65.01c0.24,0,0.488-0.12,0.636-0.297c0.983,0.782,2.532,1.029,3.773,0.619   c0.926-0.308,1.696-0.867,2.265-1.559c-0.015,0.093-0.01,0.192,0.029,0.297c0.313,0.862,1.03,1.563,2.088,1.65   c0.286,0.023,0.556-0.006,0.81-0.07c0.022,0.022,0.04,0.046,0.063,0.068c0.008,0.009,0.018,0.017,0.03,0.023   c-0.291,0.109-0.517,0.377-0.497,0.665c0.024,0.363,0.26,0.674,0.621,0.846c0.474,0.228,1.015-0.012,1.129-0.45   c0.011-0.055,0.03-0.108,0.053-0.162c0.002-0.006,0.007-0.014,0.011-0.021c0.111-0.202,0.133-0.422,0.029-0.626   c0.691,0.372,1.426,0.67,2.214,0.815c1.799,0.335,3.827-0.354,5.403,0.582c1.439,0.854,3.389,0.741,5.051,0.945   c1.914,0.234,3.826,0.415,5.762,0.427c0.048,0,0.091-0.006,0.134-0.012c0.13,0.056,0.264,0.109,0.396,0.162   c2.337,0.951,3.931,1.729,6.032,3.086c0.332,0.215,1.02,0.911,1.386,1.157c0.006,0.214,0.012,0.429,0.018,0.643   c-0.007,2.28,0.212,6.996,0.199,9.762c-0.008,1.336-0.081,2.632-0.225,3.929c-0.026,0.133-0.053,0.265-0.081,0.395   c-0.155,0.699-0.357,1.42-0.627,2.123c-0.066-0.005-0.138,0.004-0.212,0.031c-2.089,0.755-4.292,0.954-6.416,1.564   c-0.854,0.246-1.91,0.481-2.611,1.067c-0.919,0.769-1.604,1.729-2.723,2.243c-0.019,0.009-0.028,0.022-0.045,0.033   c-0.625,0.056-1.249,0.117-1.874,0.191c-0.14,0.017-0.23,0.08-0.291,0.162c-0.448,0.03-0.897,0.059-1.349,0.074   c-0.363,0.012-0.513,0.337-0.463,0.613c-3.053,0.124-6.104,0.742-9.133,1.146C20.301,97.165,20.181,97,20.147,98h54.222   c-0.036-1-0.175-0.872-0.464-0.932c-1.592-0.331-3.169-1.18-4.81-1.289c-0.6-0.042-1.192-0.207-1.783-0.25   c-0.078-0.085-0.185-0.217-0.321-0.26c-1.195-0.382-2.439-0.594-3.648-0.916c-0.297-0.079-0.539-0.156-0.784-0.216   c-1.122-0.96-2.155-2.051-3.369-2.896c-1.18-0.822-2.586-1.155-3.987-1.356c-0.031-0.005-0.056,0.002-0.084,0.003   c-0.239-0.924-0.293-1.829-0.364-2.784c-0.175-2.34-0.581-4.659-0.818-6.994c-0.055-2.022-0.151-4.043-0.118-6.065   c0.022-1.573,0.16-3.115,0.363-4.678c0.089-0.665,0.148-1.342,0.235-2.014c0.227-0.104,0.454-0.207,0.687-0.302   c0.772-0.315,1.771-0.397,2.61-0.462C57.781,66.584,58,66.584,58,66.579c0,0,0,0,0,0.002c0,0.33-0.18,0.737,0.194,0.933   c0.27,0.141,0.831,0.113,1.069-0.063c0.273-0.065,0.705-0.261,0.729-0.504c-0.023-0.014-0.219-0.027-0.213-0.039   c0.009-0.016-0.1-0.031-0.092-0.047c0.012-0.025,0.001-0.049-0.006-0.072c0.09,0.073,0.198,0.118,0.314,0.147   c0-0.003,0.004-0.006,0.004-0.009v0.01c0.087,0.021,0.177,0.038,0.27,0.036c0.025,0.029,0.04,0.059,0.069,0.086   c0.029,0.136,0.038,0.272,0.001,0.424c-0.131,0.556,0.536,1.151,1.147,0.788c0.399-0.238,0.781-0.478,1.11-0.757   c0.19-0.053,0.376-0.119,0.549-0.208c-0.013,0.043-0.018,0.09-0.018,0.139c0.001,0.225,0.062,0.434,0.245,0.599   c0.181,0.16,0.419,0.212,0.666,0.213c0.417,0,0.766-0.311,0.766-0.683c0-0.218-0.122-0.412-0.307-0.536   c-0.141-0.166-0.359-0.276-0.605-0.276c-0.018,0-0.036,0.006-0.054,0.008c0.128-0.145,0.267-0.327,0.395-0.521   c0.215-0.024,0.429-0.05,0.643-0.075c0.035,0.092,0.073,0.183,0.131,0.269c0.412,0.644,1.276,1.16,2.119,1.172   c0.501,0.008,0.947-0.181,1.232-0.548c0.005-0.009,0.006-0.017,0.012-0.022c0.747,0.08,1.529-0.053,2.238-0.377   c0.494-0.227,0.916-0.564,1.238-0.959c0.129,0.024,0.259,0.046,0.391,0.062c0.426,1.473,1.901,2.705,3.547,2.937   c-0.08,0.122-0.12,0.265-0.12,0.427c-0.001,0.372,0.349,0.683,0.766,0.683c0.178,0,0.34-0.059,0.47-0.151   c0.332-0.074,0.587-0.345,0.587-0.66c0-0.146-0.057-0.283-0.146-0.394c0.037-0.011,0.075-0.023,0.111-0.034   c0.263,0.281,0.673,0.426,1.091,0.449c0.164,0.023,0.331,0.014,0.488-0.028c0.134-0.022,0.265-0.059,0.382-0.104   c0.384-0.153,0.681-0.563,0.643-0.943c-0.046-0.449-0.299-0.807-0.63-1.129c0.145-0.353,0.234-0.728,0.286-1.103   c0.047-0.03,0.091-0.058,0.137-0.089c0.421,0.367,1.164,0.549,1.733,0.341c0.521,0.011,1.058-0.085,1.455-0.343   c0.599-0.388,0.924-0.851,0.979-1.52c0.03-0.374-0.142-0.896-0.383-1.2c-0.311-0.393-0.758-0.737-1.283-0.891   c-0.043-0.02-0.091-0.034-0.139-0.051c-0.073-0.059-0.152-0.112-0.236-0.16c-0.015-0.234-0.06-0.459-0.114-0.679   c0.06,0.016,0.116,0.021,0.178,0.041c0.426,0.134,0.839,0.28,1.279,0.401c0.764,0.204,1.678,0.289,2.504,0.155   c0.896-0.141,1.773-0.532,2.235-1.028c0.296,0.212,0.74,0.201,1.012-0.041c0.025-0.022,0.046-0.047,0.065-0.071   c0.184-0.129,0.306-0.329,0.306-0.541c0-0.248-0.15-0.455-0.371-0.572c0.323-0.304,0.54-0.695,0.608-1.148   c0.048-0.086,0.092-0.176,0.12-0.273c0.18-0.595-0.107-1.35-0.753-1.638c-0.144-0.062-0.278-0.115-0.415-0.164   c0.376-0.374,0.522-0.791,0.184-1.248c-0.282-0.381-0.784-0.657-1.388-0.861c-0.076-0.247-0.147-0.492-0.201-0.729   c-0.073-0.312-0.139-0.618-0.051-0.813c0.019-0.041,0.093-0.176,0.133-0.251c0.075,0.013,0.158,0.029,0.208,0.055   c0.373,0.181,0.728,0.385,1.08,0.598c0.706,0.425,1.414,0.815,2.148,1.084c-0.164,0.11-0.301,0.259-0.397,0.423   c-0.194,0.33-0.098,0.739,0.275,0.934c0.347,0.181,0.854,0.084,1.047-0.244c0.004-0.009,0.011-0.016,0.016-0.023   c0.226-0.118,0.381-0.33,0.381-0.581c0-0.063-0.015-0.125-0.035-0.187c0.691,0.086,1.413,0.032,2.185-0.235   c1.24-0.43,2.453-0.983,3.328-1.902c0.716-0.754,1.266-1.993,0.821-2.977c-0.23-0.506-0.493-0.942-0.926-1.337   c-0.084-0.077-0.242-0.216-0.376-0.336c0.013-0.101,0.021-0.203,0.03-0.305c0.006-0.004,0.011-0.008,0.019-0.012   c0.189-0.127,0.394-0.245,0.567-0.389c1.897-1.572,0.261-3.725-0.104-5.619c0.273-0.516,0.237-1.144-0.304-1.577   c-0.002-0.42-0.015-0.842-0.045-1.262c-0.006-0.085-0.015-0.169-0.023-0.252c0.271-0.2,0.537-0.405,0.787-0.62   c0.946-0.816,1.124-1.933,0.367-2.92c-0.462-0.604-1.033-1.153-1.434-1.793c-0.111-0.146-0.194-0.304-0.25-0.474   c-0.001-0.036-0.005-0.067-0.007-0.095c0.193-0.175,0.388-0.344,0.572-0.527c0.599-0.591,0.841-1.349,0.781-2.138   c-0.032-0.416-0.226-0.774-0.241-1.107c0.096,0.016,0.192,0.025,0.289,0.024c0.96-0.005,1.542-0.68,1.626-1.472   C99.79,26.178,100.137,25.402,99.741,24.492z M28.125,66.027c-1.504-0.86-3.047-0.32-4.689-0.45   c-0.642-0.051-1.241-0.198-1.807-0.414c0.007-0.015,0.017-0.026,0.021-0.041c0.024-0.016,0.052-0.032,0.074-0.053   c0.138-0.125,0.213-0.294,0.22-0.465c0.061-0.148,0.1-0.304,0.127-0.459c0.051-0.02,0.104-0.038,0.155-0.06   c0.518-0.211,1.104-0.549,1.699-0.792c-0.107-0.119-0.211-0.239-0.307-0.366c-0.375-0.492-0.326-1.194,0.158-1.624   c0.102,0.056,0.197,0.116,0.301,0.167c0.782,0.393,1.596,0.628,2.421,0.782c0.248,0.267,0.58,0.477,0.954,0.609   c0.088,0.062,0.184,0.118,0.28,0.171c0.366,0.01,0.73,0.049,1.086,0.121c0.877,0.172,1.607,0.693,2.341,1.184   c-0.356,0.343-0.572,0.825-0.522,1.354c0.044,0.463,0.244,0.832,0.537,1.107C30.1,66.7,29.046,66.558,28.125,66.027z    M43.626,93.219c-2.516,0.581-5.028,1.139-7.567,1.546c-0.134,0.008-0.268,0.021-0.402,0.028c0.945-0.771,1.799-1.635,3.061-2.07   c2.072-0.716,4.284-0.898,6.385-1.529C44.712,91.935,44.232,92.629,43.626,93.219z M59.055,92.37   c0.536,0.403,1.037,0.854,1.533,1.312c-1.081-0.391-2.242-0.577-3.298-1.03c-0.542-0.233-1.029-0.549-1.518-0.861   c-0.109-0.282-0.218-0.565-0.322-0.849C56.77,91.166,57.959,91.545,59.055,92.37z M46.941,46.801   c0.087-0.169,0.19-0.322,0.307-0.462c0.12,0.154,0.259,0.296,0.402,0.411c0.339,0.279,0.758,0.474,1.192,0.561   c0.02,0.073,0.05,0.146,0.105,0.219c0.562,0.756,1.477,1.091,2.358,0.505c0.089-0.059,0.149-0.128,0.199-0.201   c-0.604,1.032-1.234,2.053-1.808,3.066c-0.388,0.687-0.988,1.479-1.318,2.292c-0.553-0.935-0.921-1.946-1.463-2.894   c-0.271-0.474-0.544-0.943-0.802-1.418C46.407,48.265,46.608,47.43,46.941,46.801z M33.884,67.085   c0.585-0.292,0.882-0.815,0.971-1.417c0.03-0.209,0.048-0.42,0.063-0.63c0.135,0.008,0.272,0.006,0.416-0.008   c0.167-0.017,0.337-0.047,0.503-0.093c0.458,0.468,0.882,0.956,1.23,1.508c0.195,0.311,0.391,0.621,0.612,0.913   C36.407,67.321,35.146,67.221,33.884,67.085z M46.295,69.299c0.002,0.218,0.003,0.436,0.005,0.653   c-0.022-0.013-0.043-0.027-0.066-0.04c-1.856-1.056-4.027-1.546-6.045-2.308c-0.355-0.18-0.674-0.385-0.893-0.628   c-0.564-0.634-0.937-1.378-1.441-2.049c-0.21-0.279-0.453-0.544-0.707-0.802c0.105-0.122,0.217-0.251,0.326-0.396   c0.268,0.155,0.565,0.271,0.892,0.337c0.458,0.09,0.964,0.038,1.428-0.119c-0.009,0.045-0.015,0.088-0.015,0.132   c0,0.101,0.024,1.043,0.062,1.132C39.741,65.175,39.632,66,39.506,66H40c-0.908,0-0.982,0.566-0.242,0.719   c0.506-0.131,0.68-0.525,0.521-0.924C40.391,65.842,40.511,66,40.638,66h0.246c0.469,0,0.859-0.924,0.859-1.353   c0-0.423-0.386-1.062-0.85-1.067c0.494-0.486,0.708-1.281,0.325-1.981c-0.047-0.081-0.192-0.332-0.359-0.542   c0.013-0.124,0.041-0.275,0.098-0.361c0.172,0.178,0.363,0.316,0.569,0.441c0.665,0.396,1.289,0.411,1.814,0.2   c1.156,0.604,2.27,1.264,2.973,1.791c0.006,0.008,0.012,0.014,0.02,0.024C45.994,65.198,46.006,67.248,46.295,69.299z    M48.619,61.439c-0.982-0.105-2.004-0.609-3.11-1.18c0.285-0.132,0.512-0.36,0.576-0.684c0.004-0.023,0.005-0.044,0.008-0.067   c0.037-0.115,0.065-0.232,0.071-0.363c0.012-0.206-0.09-0.4-0.245-0.543c-0.001-0.002-0.003-0.003-0.004-0.005   c0.057-0.004,0.112-0.015,0.163-0.03c0.332-0.114,0.545-0.311,0.705-0.596c0.215-0.38,0.112-0.849-0.307-1.074   c-0.295-0.157-0.695-0.132-0.966,0.054c-0.331,0.111-0.587,0.4-0.575,0.737c0.003,0.09,0.019,0.171,0.039,0.249   c-0.206-0.029-0.42-0.001-0.62,0.064c-0.176-0.272-0.396-0.521-0.636-0.727c0.504-0.289,0.875-0.732,1.052-1.209   c0.303,0.098,0.658,0.04,0.896-0.178c0.332-0.303,0.332-0.809,0-1.11c-0.018-0.017-0.035-0.036-0.053-0.055   c-0.039-0.102-0.099-0.197-0.193-0.281c-0.159-0.147-0.38-0.23-0.605-0.23c-0.165,0-0.334,0.051-0.479,0.137   c-0.202-0.167-0.464-0.306-0.797-0.405c-0.122-0.036-0.244-0.063-0.362-0.088c-0.281-0.346-0.732-0.57-1.235-0.601   c-0.645-0.038-1.306,0.116-1.877,0.407c0.08-0.896-0.461-1.855-1.27-2.385c-0.729-0.478-1.669-0.672-2.56-0.508   c-0.075,0.014-0.166,0.035-0.262,0.059c0.808-0.51,1.291-1.374,0.899-2.281c-0.104-0.241-0.251-0.464-0.428-0.665   c0.261,0.194,0.533,0.423,0.715,0.481c1.284,0.404,2.768,0.139,3.661-0.825c0.409-0.442,0.539-1.029,0.707-1.583   c0.009,0.008,0.019,0.013,0.027,0.02c0.112,0.087,0.221,0.184,0.326,0.283c-0.097,0.448-0.206,0.905-0.19,1.345   c0.031,0.925,1.01,1.741,1.965,1.945c0.257,0.055,0.513,0.052,0.76,0.009c0.691,1.527,1.61,3.811,2.119,4.625   c0.766,1.223,1.604,2.448,2.346,3.684c0.398,0.66,0.65,1.586,0.612,2.366c-0.003,0.081,0,0.158,0.01,0.23   C49.167,60.758,48.876,61.088,48.619,61.439z M52.235,58.661c-0.203-0.328-0.94-1.134-1.155-1.447   c-0.524-0.76-0.999-1.539-1.513-2.303c0.126-0.146,0.189-0.341,0.135-0.567c-0.136-0.576,0.607-1.488,0.896-1.969   c0.365-0.613,0.659-1.249,1.007-1.869c0.41-0.732,0.858-1.445,1.297-2.163c0.007,0.011,0.012,0.022,0.019,0.032   c0.916,1.251,2.639,1.335,3.94,0.462c0.69-0.464,1.276-1.418,2.009-1.887c0.091,0.113,0.172,0.235,0.245,0.359   c-0.218,0.451-0.341,0.919-0.352,1.365c-0.262,0.218,0.202,0.044-0.271,0.927c-0.22,0.411-1.576,2.374-1.79,2.788   c-0.168,0.104-1.546,1.935-1.675,2.089C53.71,56.069,53.272,56.932,52.235,58.661z M59.271,64.234   c-0.272,0.243-0.28,0.633-0.05,0.896c-0.986,0.023-1.968,0.074-2.95,0.219c-0.574,0.084-1.078,0.239-1.564,0.423   c0.026-0.11,0.053-0.219,0.084-0.326c0.359-1.233,0.961-2.136,2.007-2.992c0.553-0.454,1.189-0.733,1.598-1.31   C58.726,61.029,59.062,61,59.401,61h0.013c0.019,0,0.175-0.162,0.312-0.061c-0.025,0.275-0.041,0.428-0.079,0.702   c-0.012,0.084-0.04,0.086-0.081,0.138c-0.006,0.007-0.013,0.102-0.02,0.108C59.539,61.897,59.528,62,59.52,62   c-0.013,0-0.01,0-0.025,0c-0.085,0-0.168-0.118-0.252-0.101c-0.203,0.033-0.366,0.068-0.525,0.191   c-0.403,0.313-0.21,1.038,0.359,0.954c0.191-0.029,0.371-0.087,0.544-0.141c-0.03,0.333-0.016,0.659,0.083,0.963   c0.021,0.067,0.025,0.121,0.051,0.182C59.585,64.064,59.399,64.122,59.271,64.234z M62.355,58.51   c-0.955-0.057-1.912-0.05-2.857,0.051c-1.419,0.155-2.567-0.122-3.882,0.372c0.328-0.847,0.691-1.685,1.132-2.503   c0.652-1.212,1.237-2.457,1.906-3.66c0.403-0.726,0.832-1.454,1.428-2.062c0.159,0.07,0.33,0.133,0.521,0.181   c0.141,0.035,0.279,0.051,0.417,0.052c-0.087,0.429-0.03,0.851,0.184,1.274c-0.174,0.17-0.392,0.331-0.696,0.48   c-0.729,0.359-1.494,0.688-1.934,1.192c-0.906,1.039,0.882,1.827,2.182,2.339c0.686,0.271,1.679,0.554,1.677,1.105   C62.432,57.731,62.338,58.117,62.355,58.51z"/>
	<path d="M40,65c-0.092,0-0.167-0.017-0.242-0.031C39.682,64.988,39.598,65,39.506,65H40z"/>
	<rect x="59.992" y="65.436" width="0.008" height="0.011"/>
	<path d="M89.882,57.931c-0.184,0.163-0.248,0.387-0.204,0.596c-0.014,0.047-0.02,0.096-0.02,0.146c0,0.353,0.349,0.708,0.765,0.682   c0.158-0.01,0.342-0.027,0.473-0.119c0.175-0.118,0.329-0.25,0.375-0.451c0.073-0.333-0.053-0.611-0.306-0.853   C90.681,57.659,90.17,57.674,89.882,57.931z"/>
	<path d="M92.173,17.475c-0.414,0-0.769,0.31-0.765,0.681c0,0.047,0.005,0.099,0.013,0.148c-0.008,0.036-0.013,0.073-0.013,0.111   c0,0.354,0.348,0.705,0.765,0.682c0.025-0.001,0.05-0.004,0.075-0.005c0.135,0.018,0.274,0.012,0.397-0.028   c0.203-0.065,0.354-0.161,0.506-0.296c0.243-0.217,0.293-0.562,0.12-0.827c-0.13-0.195-0.394-0.351-0.656-0.337   C92.49,17.523,92.339,17.475,92.173,17.475z"/>
	<path d="M92.027,12.981h0.292c0.417,0,0.766-0.369,0.766-0.74c0-0.286-0.188-0.53-0.447-0.638   c-0.041-0.032-0.084-0.078-0.134-0.103c-0.165-0.082-0.288-0.112-0.477-0.123c-0.416-0.025-0.765,0.325-0.765,0.678   c0,0.022,0.005,0.042,0.007,0.064c-0.002,0.022-0.007,0.099-0.007,0.122C91.263,12.613,91.61,12.981,92.027,12.981z"/>
	<path d="M4.59,23.264c0.02-0.025,0.04-0.043,0.06-0.074C4.581,23.19,4.574,23.229,4.59,23.264z"/>
	<path d="M4.59,23.264c-0.016-0.034-0.009-0.073,0.06-0.074v0H4.65l-0.001,0C4.63,23.22,4.609,23.238,4.59,23.264   c0.014,0.028,0.041,0.053,0.065,0.045c0.29,0.131,0.641,0.168,0.89-0.054c0.282-0.251,0.312-0.688,0-0.935   c-0.487-0.387-1.098-0.325-1.656-0.092c-0.377,0.159-0.472,0.525-0.273,0.824C3.824,23.371,4.229,23.738,4.59,23.264z"/>
	<polygon points="29.47,7.685 29.469,7.686 29.463,7.688  "/>
	<path d="M29.469,7.686c0.007-0.003,0.014-0.006,0.019-0.01c0.05-0.002,0.102-0.006,0.152-0.006c0.416,0,0.765-0.31,0.765-0.682   c0-0.372-0.349-0.681-0.765-0.681c-0.418,0-0.809,0.073-1.124,0.329c-0.31,0.25-0.285,0.711,0,0.964   C28.778,7.836,29.168,7.85,29.469,7.686z"/>
	<path d="M42.08,3.217c0.195-0.064,0.344-0.162,0.489-0.292c0.296-0.263,0.295-0.702,0-0.964c-0.099-0.089-0.222-0.145-0.352-0.174   c-0.299-0.214-0.746-0.202-1.021,0.044c-0.191,0.171-0.334,0.366-0.334,0.618c0,0.246,0.147,0.438,0.334,0.606   C41.407,3.243,41.793,3.312,42.08,3.217z"/>
	<path d="M220.771,30.403c-0.409-0.504-0.933-0.794-1.506-0.977c0.121-0.12,0.26-0.224,0.465-0.353   c0.444-0.281,0.095-0.93-0.411-0.725c-0.052,0.021-0.092,0.052-0.144,0.074c-0.098-0.214-0.08-0.271-0.363-0.642   c-0.041-0.053-0.063-0.08-0.112-0.11l-0.1-0.38c-0.005-0.007,0.08,0.032,0.083,0.028l0.166-0.334   c0.134-0.267-0.131-0.548-0.37-0.618c0.047-0.047-0.004-0.143,0.041-0.19c0.373-0.384-0.255-0.919-0.643-0.569   c-0.282,0.255-0.565,0.478-0.859,0.685c0.127-0.402-0.401-0.676-0.701-0.411c-0.115-0.394-0.741-0.452-0.823-0.013   c-0.053,0.288-0.141,0.563-0.237,0.833c-0.079-0.252-0.147-0.508-0.188-0.781c-0.052-0.345-0.411-0.451-0.646-0.333   c-0.2-0.343-0.81-0.193-0.78,0.228c0.009,0.111,0.005,0.218,0.01,0.329c-0.162,0.024-0.316,0.121-0.37,0.29   c-0.097,0.313-0.146,0.567-0.151,0.798c-0.229-0.006-0.449,0.131-0.4,0.407c0.069,0.388,0.125,0.776,0.188,1.165   c-0.102-0.166-0.216-0.33-0.344-0.496c-0.278-0.361-0.983-0.11-0.754,0.337c0.164,0.323,0.178,0.714,0.202,1.083   c-0.21,0.053-0.426,0.11-0.664,0.168c-0.387,0.094-0.337,0.572-0.047,0.756c0.152,0.119,0.315,0.213,0.484,0.292   c-3.384,0.947-6.992,0.253-10.396-1.094c0.098-0.259,0.011-0.576-0.335-0.71c-0.217-0.085-0.409-0.197-0.605-0.299   c-0.007-0.011-0.01-0.02-0.016-0.031c0.489-0.07,0.986-0.102,1.544-0.07c0.143,0.007,0.253-0.035,0.344-0.096   c0.086,0.024,0.171,0.042,0.26,0.07c0.595,0.188,1.04-0.702,0.469-1.008c-1.01-0.535-2.049-0.951-3.113-1.364h-0.001   c0.117-0.155,0.24-0.309,0.367-0.458c0.396-0.279,0.759-0.655,1.057-1.132c0.24-0.391-0.068-0.785-0.435-0.826   c0.167-0.159,0.232-0.444,0.083-0.667c0.013-0.043,0.027-0.083,0.039-0.128c0.002-0.01,0-0.018,0.002-0.028   c2.988-0.292,5.857-1.142,8.443-2.802c0.054,0.158,0.177,0.289,0.388,0.334c0.272,0.057,0.524,0.125,0.771,0.199   c0.065,0.566,0.122,1.152,0.019,1.548c-0.188,0.727,0.965,1.043,1.153,0.318c0.1-0.385,0.289-0.74,0.51-1.079   c0.027,0.017,0.058,0.026,0.087,0.04c0.541,0.37,0.999,0.823,1.396,1.391c0.232,0.492,0.486,0.961,0.807,1.441   c0.431,0.646,1.335,0.098,1.026-0.58c-0.237-0.519-0.491-0.97-0.766-1.387c-0.035-0.081-0.062-0.165-0.095-0.248   c0.065-0.005,0.128-0.021,0.188-0.042c0.144-0.03,0.271-0.07,0.384-0.121l0.255,0.048c0.142,0.087,0.283,0.175,0.436,0.253   c0.5,0.257,1.161-0.273,0.811-0.791c-0.223-0.33-0.458-0.583-0.698-0.801c0.064-0.125,0.1-0.271,0.071-0.415   c0.096,0.173,0.183,0.34,0.297,0.524c0.12,0.195,0.331,0.297,0.54,0.313c0.068,0.055,0.145,0.097,0.23,0.113   c0.328,0.488,1.222,0.322,1.083-0.357c-0.084-0.422-0.138-0.834-0.176-1.25c0.159,0.079,0.342,0.083,0.503,0.025   c0.065,0.053,0.13,0.106,0.195,0.159c0.624,0.458,1.27-0.467,0.683-0.946c-0.249-0.183-0.476-0.379-0.692-0.586   c-0.04-0.155-0.076-0.312-0.124-0.465c0.116-0.169,0.131-0.387,0.034-0.575c0.16,0.035,0.32,0.069,0.483,0.108   c0.655,0.153,1.091-0.566,0.548-1.015c-0.698-0.577-1.491-0.82-2.322-0.899c0.131-0.204,0.291-0.391,0.532-0.633   c0.528-0.526-0.129-1.322-0.762-0.881c-0.063,0.044-0.111,0.101-0.174,0.148c-0.191-0.269-0.187-0.352-0.673-0.783   c-0.071-0.061-0.109-0.092-0.185-0.119l-0.243-0.498c-0.007-0.009,0.119,0.021,0.122,0.015l0.134-0.516   c0.106-0.412-0.334-0.722-0.677-0.747c0.049-0.08-0.047-0.197,0.002-0.277c0.4-0.647-0.605-1.2-1.033-0.594   c-0.313,0.44-0.636,0.837-0.978,1.214c0.061-0.597-0.734-0.817-1.068-0.356c-0.269-0.512-1.136-0.401-1.124,0.234   c0.008,0.417-0.034,0.826-0.09,1.231c-0.179-0.327-0.345-0.662-0.476-1.028c-0.167-0.464-0.684-0.501-0.972-0.267   c-0.366-0.415-1.154-0.02-0.998,0.555c0.042,0.151,0.067,0.303,0.105,0.454c-0.213,0.084-0.396,0.265-0.421,0.517   c-0.044,0.464-0.041,0.833,0.016,1.157c-0.314,0.062-0.574,0.319-0.432,0.687c0.204,0.519,0.389,1.042,0.583,1.561   c-0.187-0.197-0.386-0.392-0.605-0.583c-0.48-0.419-1.37,0.146-0.933,0.699c0.313,0.398,0.441,0.938,0.576,1.443   c-0.271,0.138-0.547,0.284-0.856,0.438c-0.497,0.248-0.297,0.897,0.147,1.064c0.241,0.119,0.49,0.2,0.744,0.259   c-2.024,1.097-4.218,1.706-6.487,1.966c-0.131-0.061-0.26-0.125-0.385-0.19c-0.006-0.009-0.009-0.017-0.014-0.026   c0.418-0.06,0.843-0.087,1.318-0.06c0.121,0.005,0.216-0.03,0.293-0.082c0.073,0.021,0.146,0.035,0.223,0.061   c0.508,0.16,0.888-0.6,0.399-0.861c-0.861-0.457-1.749-0.812-2.658-1.165h-0.001c0.101-0.133,0.205-0.264,0.314-0.392   c0.338-0.238,0.647-0.559,0.901-0.966c0.228-0.368-0.114-0.761-0.466-0.722c0.046-0.151,0.091-0.302,0.137-0.453   c0.388,0.073,0.681-0.464,0.412-0.812c-0.068-0.087-0.143-0.18-0.219-0.27c0.161-0.015,0.321-0.03,0.483-0.041   c0.537-0.032,0.689-0.729,0.167-0.933c-0.186-0.072-0.349-0.168-0.517-0.255c-0.006-0.009-0.009-0.017-0.014-0.026   c0.418-0.061,0.843-0.087,1.318-0.061c0.121,0.006,0.216-0.029,0.293-0.082c0.074,0.021,0.146,0.035,0.223,0.06   c0.508,0.16,0.888-0.6,0.399-0.861c-0.861-0.456-1.749-0.812-2.658-1.165c-0.001,0-0.001,0-0.001,0   c0.101-0.133,0.205-0.263,0.314-0.392c0.338-0.238,0.647-0.559,0.901-0.966c0.228-0.368-0.114-0.761-0.466-0.722   c0.019-0.061,0.037-0.123,0.055-0.184c0.003-0.004,0.005-0.005,0.006-0.009c0.007-0.031,0.018-0.058,0.024-0.088   c0.039-0.125,0.081-0.25,0.114-0.381c0.143,0.081,0.287,0.164,0.43,0.251c0.354,0.22,0.81-0.099,0.719-0.509   c-0.033-0.151-0.068-0.291-0.102-0.435c0.119-0.055,0.222,0.038,0.248-0.094C203.517,8.999,203.531,9,203.548,9   c0.001,0,0.003,0,0.006,0c0.021,0,0.052-0.087,0.095-0.046c0.39,0.385,0.767,0.628,1.208,0.945   c0.472,0.338,0.916-0.371,0.604-0.774c-0.068-0.087-0.143-0.201-0.219-0.291c0.161-0.015,0.321-0.042,0.483-0.052   c0.537-0.032,0.689-0.735,0.167-0.938c-0.186-0.072-0.349-0.17-0.517-0.258c-0.006-0.009-0.009-0.018-0.014-0.027   c0.418-0.061,0.843-0.089,1.318-0.062c0.121,0.005,0.216-0.03,0.293-0.083c0.073,0.021,0.146,0.035,0.223,0.06   c0.508,0.16,0.888-0.6,0.399-0.86c-0.861-0.457-1.749-0.812-2.658-1.166h-0.001c0.101-0.133,0.205-0.263,0.314-0.392   c0.338-0.238,0.647-0.559,0.901-0.966c0.228-0.368-0.114-0.761-0.466-0.722c0.067-0.22,0.143-0.434,0.199-0.662   c0.132-0.532-0.537-0.845-0.859-0.401c-0.093,0.128-0.188,0.251-0.281,0.378c0.062-0.205,0.131-0.404,0.186-0.614   c0.103-0.396-0.237-0.66-0.552-0.599c0.078-0.225,0.171-0.442,0.233-0.674c0.146-0.551-0.527-0.814-0.859-0.401   c-0.029,0.037-0.059,0.074-0.09,0.111c-0.001-0.458-0.548-0.659-0.865-0.271c-0.352,0.43-0.671,0.882-0.99,1.332   c0.044-0.243,0.083-0.487,0.121-0.736c0.069-0.468-0.668-0.694-0.883-0.277c-0.167,0.325-0.316,0.653-0.455,0.983   c-0.024-0.033-0.041-0.067-0.064-0.1c-0.04-0.056,0.236-0.081,0.18-0.105C200.694,1.272,201,1.21,201,1.148V0.833   c0,0.004-0.357,0.01-0.394,0.014c-0.012-0.046-0.373-0.093-0.386-0.141C200.093,0.196,199,0.235,199,0.789v0.122   c0,0.001-0.048,0.003-0.067,0.006C198.959,1.021,199,1.124,199,1.228v1.437c-1-0.844-1.043-1.677-1.689-2.498   c-0.346-0.439-0.903,0.083-0.675,0.553c0.169,0.346,0.397,0.688,0.579,1.028c-0.45-0.167-0.926-0.261-1.497-0.299   c-0.487-0.032-0.622,0.572-0.292,0.854c-0.041,0.203,0.048,0.438,0.304,0.557c0.079,0.036,0.163,0.067,0.242,0.1   c-0.092,0.011-0.177,0.054-0.262,0.125c-0.254-0.015-0.504-0.038-0.763-0.044c-0.209-0.005-0.359,0.116-0.436,0.272   c-0.217-0.112-0.513-0.091-0.638,0.15c-0.167,0.325-0.317,0.653-0.455,0.983c-0.024-0.033-0.041-0.067-0.065-0.1   c-0.039-0.056-0.677-0.081-0.734-0.105C192.608,4.178,192,4.117,192,4.055V3.74c0,0.005,0.557,0.01,0.52,0.014   c-0.01-0.046,0.171-0.093,0.158-0.141C192.55,3.103,192,3.142,192,3.696v0.121c0,0.001-0.048,0.003-0.067,0.006   C191.959,3.927,192,4.031,192,4.134V5.57c-1-0.844-1.129-1.677-1.775-2.498c-0.348-0.439-0.946,0.083-0.719,0.553   c0.17,0.347,0.377,0.688,0.558,1.028c-0.448-0.167-0.936-0.261-1.507-0.299c-0.487-0.032-0.628,0.573-0.298,0.854   c-0.041,0.204,0.045,0.438,0.301,0.557c0.208,0.095,0.421,0.175,0.63,0.263c-0.467-0.042-0.938-0.07-1.415-0.082   c-0.531-0.013-0.701,0.786-0.167,0.931c0.545,0.15,1.096,0.272,1.646,0.388C189,7.35,188.75,7.45,188.504,7.564   c-0.16-0.284-0.66-0.365-0.831-0.032c-0.068,0.132-0.123,0.266-0.186,0.399c-0.202-0.087-0.409-0.166-0.615-0.249   c0,0,0-0.001,0-0.001c-0.089-0.352-0.462-0.436-0.688-0.277c-0.016-0.005-0.03-0.012-0.046-0.019h-0.001   c0.101-0.133,0.205-0.264,0.314-0.392c0.338-0.239,0.647-0.559,0.901-0.966c0.228-0.368-0.114-0.761-0.466-0.723   c0.067-0.22,0.143-0.434,0.199-0.662c0.132-0.533-0.537-0.845-0.859-0.401c-0.093,0.128-0.189,0.251-0.281,0.378   c0.062-0.204,0.131-0.404,0.186-0.614c0.102-0.396-0.237-0.66-0.552-0.599c0.078-0.225,0.171-0.441,0.233-0.674   c0.146-0.551-0.527-0.814-0.859-0.401c-0.029,0.038-0.059,0.074-0.09,0.111c-0.001-0.458-0.548-0.659-0.865-0.27   c-0.352,0.43-0.671,0.882-0.99,1.332c0.043-0.243,0.083-0.487,0.12-0.736c0.069-0.468-0.667-0.693-0.882-0.277   c-0.167,0.325-0.316,0.653-0.455,0.983c-0.024-0.033-0.041-0.067-0.065-0.1c-0.039-0.056-0.362-0.081-0.419-0.105   C181.295,3.209,181,3.148,181,3.085V2.771c0,0.005,0.242,0.01,0.206,0.014c-0.011-0.046,0.327-0.093,0.314-0.141   C181.393,2.134,181,2.172,181,2.727v0.122c0,0.001-0.048,0.003-0.067,0.005C180.959,2.958,181,3.062,181,3.165v1.437   c-1-0.844-1.443-1.677-2.09-2.498c-0.347-0.439-1.103,0.083-0.875,0.553c0.17,0.346,0.298,0.688,0.479,1.027   c-0.448-0.167-0.975-0.261-1.546-0.298c-0.487-0.032-0.646,0.572-0.317,0.854c-0.041,0.204,0.035,0.438,0.291,0.557   c0.209,0.095,0.416,0.175,0.625,0.263c-0.467-0.042-0.939-0.07-1.417-0.082c-0.531-0.013-0.703,0.786-0.169,0.931   c0.545,0.15,1.095,0.272,1.646,0.388c-0.481,0.16-0.951,0.369-1.408,0.646c-0.282,0.171-0.298,0.458-0.163,0.66   c-0.135,0.187-0.279,0.368-0.412,0.555c0.043-0.243,0.083-0.487,0.121-0.736c0.068-0.468-0.668-0.694-0.883-0.277   c-0.167,0.325-0.316,0.653-0.455,0.983c-0.024-0.033-0.041-0.067-0.064-0.1c-0.04-0.056-0.183-0.081-0.236-0.105   C174.113,7.86,174,7.799,174,7.736V7.422c0,0.004,0.059,0.01,0.022,0.014c-0.009-0.046-0.081-0.093-0.093-0.141   c-0.129-0.51-0.93-0.472-0.93,0.083v0.122c0,0.001-0.048,0.003-0.067,0.006C172.959,7.609,173,7.712,173,7.816v1.437   c0-0.844-1.127-1.677-1.771-2.498c-0.348-0.439-0.945,0.083-0.716,0.553c0.168,0.346,0.376,0.688,0.557,1.028   c-0.448-0.167-0.936-0.261-1.507-0.299c-0.486-0.032-0.628,0.572-0.298,0.854c-0.04,0.203,0.047,0.438,0.302,0.557   c0.208,0.095,0.421,0.175,0.63,0.263c-0.467-0.042-0.938-0.07-1.416-0.082c-0.531-0.013-0.7,0.786-0.164,0.931   c0.545,0.15,1.094,0.272,1.645,0.388c-0.481,0.16-0.951,0.369-1.408,0.646c-0.486,0.295-0.194,0.94,0.33,0.888   c0.729-0.073,1.425-0.258,2.122-0.447c-0.632,0.622-1.374,1.135-2.075,1.702c-0.426,0.342,0.085,1.033,0.551,0.771   c0.297-0.17,0.579-0.354,0.856-0.542c-0.46,0.642-0.893,1.304-1.218,2.045c-0.217,0.492,0.445,0.74,0.78,0.492   c0.355-0.261,0.683-0.539,0.99-0.826c-0.129,0.367-0.246,0.74-0.339,1.127c-0.111,0.476,0.4,0.8,0.781,0.495   c0.213-0.17,0.403-0.351,0.583-0.539c0.087,0.046,0.191,0.061,0.311,0.018c0.042-0.015,0.075-0.035,0.116-0.052   c0.001,0.004,0.002,0.005,0.004,0.01c0.036-0.02,0.07-0.041,0.106-0.06c0.03-0.015,0.056-0.033,0.086-0.047   c0.064,0.099,0.16,0.181,0.306,0.221c0.253,0.069,0.509,0.119,0.763,0.18c0.041,0.167,0.073,0.335,0.118,0.502   c0.021,0.081,0.068,0.146,0.125,0.198c-0.24,0.115-0.48,0.235-0.716,0.378c-0.592,0.359-0.236,1.144,0.401,1.08   c0.384-0.038,0.759-0.11,1.13-0.189c0.105,0.208,0.213,0.416,0.321,0.621c-0.04,0.031-0.073,0.065-0.113,0.096   c-0.401-0.128-0.835-0.214-1.33-0.246c-0.487-0.032-0.635,0.572-0.304,0.854c-0.038,0.186,0.046,0.388,0.252,0.514   c-0.056,0.083-0.089,0.17-0.09,0.262c-0.218-0.012-0.433-0.032-0.653-0.038c-0.531-0.012-0.701,0.786-0.167,0.931   c0.546,0.15,1.095,0.272,1.646,0.389c-0.481,0.16-0.95,0.369-1.408,0.646c-0.485,0.295-0.193,0.94,0.331,0.888   c0.218-0.021,0.429-0.068,0.642-0.107c0.062,0.255,0.348,0.405,0.63,0.393c-0.188,0.15-0.372,0.306-0.564,0.453   c-3.426-0.771-6.615-2.185-9.148-4.612c0.254,0.007,0.509-0.009,0.763-0.064c0.461-0.049,0.809-0.628,0.4-0.993   c-0.253-0.228-0.479-0.438-0.699-0.639c0.251-0.455,0.502-0.946,0.896-1.252c0.547-0.424-0.152-1.196-0.708-0.911   c-0.253,0.13-0.488,0.268-0.712,0.412c0.311-0.454,0.612-0.914,0.93-1.365c0.226-0.32,0.044-0.634-0.237-0.773   c0.132-0.3,0.226-0.655,0.297-1.116c0.038-0.25-0.089-0.471-0.27-0.605c0.073-0.136,0.135-0.277,0.21-0.413   c0.289-0.517-0.356-1.098-0.804-0.788c-0.212-0.299-0.708-0.393-0.979,0.015c-0.214,0.321-0.452,0.604-0.7,0.875   c0.047-0.406,0.108-0.812,0.218-1.214c0.165-0.612-0.625-0.937-1.001-0.509c-0.202-0.53-1.005-0.517-1.095,0.077   c-0.229-0.451-0.436-0.917-0.622-1.421c-0.256-0.694-1.338-0.413-1.12,0.315c0.026,0.089-0.036,0.179-0.011,0.268   C159.436,9.878,159,10.066,159,10.492v0.533c0,0.007,0.07,0.009,0.062,0.017l-0.378,0.421c-0.077,0.007-0.136,0.026-0.216,0.068   c-0.564,0.294-0.587,0.376-0.834,0.588c-0.047-0.062-0.08-0.128-0.13-0.187c-0.487-0.586-1.305,0.02-0.937,0.662   c0.169,0.296,0.275,0.517,0.348,0.747c-0.803-0.132-1.609-0.096-2.408,0.287c-0.621,0.298-0.388,1.102,0.266,1.119   c0.164,0.004,0.323,0.011,0.483,0.018c-0.137,0.158-0.177,0.372-0.109,0.564c-0.082,0.136-0.154,0.28-0.229,0.419   c-0.255,0.146-0.518,0.279-0.796,0.393c-0.671,0.316-0.288,1.375,0.411,1.088c0.075-0.035,0.148-0.07,0.223-0.105   c0.138,0.097,0.312,0.138,0.48,0.102c-0.138,0.392-0.29,0.778-0.473,1.165c-0.295,0.622,0.504,1.008,0.934,0.618   c0.085,0.006,0.167-0.015,0.245-0.052c0.2,0.038,0.424-0.008,0.585-0.166c0.152-0.151,0.275-0.291,0.407-0.434   c-0.061,0.132-0.064,0.282-0.034,0.419c-0.28,0.15-0.562,0.336-0.854,0.599c-0.458,0.413,0.035,1.093,0.57,0.97   c0.162-0.037,0.316-0.086,0.472-0.135l0.251,0.018c0.095,0.077,0.204,0.148,0.332,0.213c0.051,0.037,0.106,0.067,0.167,0.088   c-0.051,0.072-0.098,0.146-0.151,0.215c-0.358,0.335-0.709,0.708-1.06,1.15c-0.456,0.579,0.261,1.337,0.825,0.82   c0.419-0.384,0.772-0.774,1.112-1.192c0.513-0.45,1.056-0.772,1.654-0.995c0.031-0.005,0.063-0.006,0.094-0.016   c0.123,0.383,0.216,0.774,0.216,1.172c0,0.75,1.162,0.733,1.162-0.018c0-0.409,0.196-0.962,0.397-1.494   c0.249-0.01,0.503-0.012,0.774,0c0.209,0.01,0.356-0.086,0.447-0.225c2.691,2.995,6.203,4.741,10.028,5.69   c-0.223,0.114-0.382,0.393-0.251,0.662c0.169,0.346,0.35,0.688,0.53,1.027c-0.448-0.167-0.948-0.261-1.52-0.298   c-0.487-0.032-0.635,0.572-0.304,0.854c-0.041,0.203,0.042,0.438,0.297,0.556c0.208,0.096,0.419,0.175,0.628,0.264   c-0.467-0.042-0.938-0.07-1.416-0.082c-0.531-0.012-0.701,0.786-0.167,0.931c0.545,0.15,1.095,0.272,1.646,0.389   c-0.481,0.16-0.95,0.369-1.408,0.646c-0.485,0.295-0.193,0.94,0.331,0.888c0.729-0.072,1.425-0.257,2.122-0.447   c-0.633,0.623-1.374,1.136-2.076,1.702c-0.426,0.342,0.086,1.034,0.551,0.771c0.298-0.17,0.579-0.353,0.856-0.542   c-0.46,0.642-0.893,1.304-1.217,2.045c-0.217,0.492,0.444,0.741,0.779,0.492c0.355-0.261,0.683-0.538,0.99-0.825   c-0.128,0.367-0.246,0.74-0.338,1.127c-0.111,0.476,0.399,0.799,0.781,0.495c0.212-0.17,0.403-0.351,0.582-0.54   c0.088,0.047,0.192,0.062,0.312,0.018c0.042-0.015,0.075-0.035,0.116-0.052c0.001,0.004,0.002,0.005,0.003,0.01   c0.036-0.019,0.07-0.041,0.106-0.06c0.137-0.061,0.266-0.13,0.381-0.207c0.191-0.104,0.383-0.203,0.57-0.312   c0.093,0.461,0.197,0.92,0.322,1.375c0.094,0.345,0.57,0.435,0.865,0.281c0.274,0.265,0.823-0.053,0.742-0.492   c-0.005-0.028-0.01-0.057-0.015-0.084c0.123-0.037,0.231-0.129,0.282-0.303c0.035-0.166,0.084-0.318,0.129-0.475   c0.146,0.083,0.293,0.167,0.438,0.257c0.354,0.22,0.81-0.099,0.719-0.509c-0.033-0.151-0.068-0.291-0.101-0.435   c0.119-0.054,0.221,0.248,0.247,0.116c0.02-0.093,0.034,0.117,0.05,0.117c0.001,0,0.004,0,0.006,0c0.021,0,0.053-0.296,0.096-0.256   c0.39,0.385,0.767,0.524,1.208,0.841c0.472,0.339,0.915-0.423,0.604-0.826c-0.068-0.087-0.144-0.227-0.22-0.317   c0.161-0.015,0.321-0.056,0.483-0.066c0.537-0.032,0.822-0.741,0.301-0.944c-0.186-0.073-0.383-0.18-0.383-0.268   c0,0,0-0.002,0-0.002c0,0.053,0.238,0.042,0.391-0.037c0.158,0.152,0.33,0.099,0.497-0.047c0.074,0.001,0.106-0.004,0.183,0   c0.122,0.006,0.2-0.029,0.277-0.082c0.074,0.021,0.138,0.035,0.214,0.06c0.508,0.16,0.884-0.6,0.396-0.861   c-0.196-0.104-0.4-0.188-0.6-0.283c0.014-0.046,0.025-0.095,0.039-0.142c0.146,0.083,0.292,0.167,0.438,0.257   c0.354,0.22,0.81-0.099,0.719-0.509c-0.033-0.151-0.068-0.291-0.102-0.435c0.119-0.054,0.222,0.09,0.248-0.042   c0.019-0.093,0.033-0.042,0.05-0.042c0,0,0.003,0,0.006,0c0.021,0,0.052-0.137,0.095-0.097c0.265,0.261,0.53,0.565,0.808,0.789   L185.142,100h5.814l-0.86-68.4c0.34-0.261,0.67-0.62,0.971-0.902c-0.149,0.429-0.288,0.821-0.396,1.274   c-0.131,0.558,0.468,0.914,0.915,0.557c0.249-0.199,0.473-0.423,0.683-0.644c0.102,0.055,0.225,0.066,0.364,0.016   c0.049-0.018,0.088-0.044,0.135-0.064c0.002,0.005,0.003,0.006,0.005,0.011c0.042-0.022,0.082-0.049,0.125-0.071   c0.159-0.072,0.312-0.153,0.445-0.242c0.225-0.121,0.448-0.239,0.667-0.366c0.109,0.54,0.232,1.077,0.377,1.61   c0.111,0.404,0.668,0.509,1.015,0.33c0.321,0.31,0.964-0.062,0.87-0.576c-0.007-0.034-0.013-0.066-0.018-0.099   c0.144-0.043,0.271-0.151,0.329-0.354c0.041-0.194,0.099-0.373,0.152-0.556c0.172,0.097,0.343,0.195,0.514,0.3   c0.414,0.259,0.948-0.115,0.841-0.595c-0.038-0.177-0.079-0.341-0.118-0.509c0.14-0.064,0.26-0.205,0.29-0.359   c0.022-0.109,0.04-0.359,0.059-0.359c0.002,0,0.004,0,0.006,0c0.026,0,0.062,0.149,0.112,0.197   c0.457,0.451,0.897,0.861,1.415,1.232c0.552,0.396,1.072-0.512,0.708-0.983c-0.08-0.103-0.169-0.445-0.257-0.445   c0.003,0,0.008,0,0.011,0c4.119,3,8.549,2.79,12.638,1.309c0.016,0.118,0.084,0.297,0.227,0.36   c0.183,0.082,0.351,0.201,0.513,0.291c-0.034,0.399-0.077,0.829-0.205,1.086c-0.235,0.471,0.53,0.875,0.765,0.405   c0.125-0.249,0.31-0.459,0.512-0.658c0.017,0.016,0.037,0.029,0.057,0.042c0.327,0.338,0.586,0.722,0.784,1.174   c0.094,0.375,0.206,0.738,0.363,1.118c0.212,0.511,0.926,0.274,0.805-0.24c-0.094-0.395-0.209-0.744-0.342-1.073   c-0.014-0.061-0.022-0.124-0.033-0.185c0.048,0.007,0.093,0.006,0.139,0c0.105,0.001,0.199-0.007,0.287-0.024l0.173,0.072   c0.086,0.082,0.174,0.165,0.27,0.241c0.316,0.254,0.855-0.009,0.682-0.419c-0.109-0.261-0.238-0.473-0.377-0.66   c0.063-0.076,0.107-0.17,0.109-0.274c0.042,0.133,0.079,0.262,0.134,0.407c0.057,0.153,0.19,0.255,0.336,0.299   c0.039,0.047,0.088,0.088,0.146,0.113c0.162,0.387,0.814,0.411,0.812-0.079c0-0.302,0.02-0.595,0.053-0.886   c0.101,0.079,0.229,0.11,0.35,0.096c0.039,0.045,0.076,0.092,0.115,0.139c0.374,0.412,0.958-0.125,0.614-0.546   c-0.149-0.164-0.281-0.335-0.404-0.51c-0.006-0.112-0.01-0.227-0.021-0.34c0.105-0.099,0.146-0.246,0.105-0.389   c0.107,0.048,0.214,0.096,0.324,0.148C220.682,31.224,221.091,30.796,220.771,30.403z M174.014,25.953   c0.01-0.005,0.021-0.004,0.032-0.011c0.055-0.031,0.104-0.067,0.158-0.1c0.118,0.025,0.236,0.049,0.354,0.073   c-0.09,0.134-0.185,0.265-0.27,0.403C174.195,26.198,174.106,26.074,174.014,25.953z M175.455,27.112   c-0.061,0.176-0.107,0.361-0.162,0.542c-0.062-0.083-0.126-0.166-0.188-0.25C175.22,27.305,175.347,27.214,175.455,27.112z    M200.289,16.832c0.046-0.152,0.093-0.304,0.137-0.458c0.041,0.036,0.08,0.076,0.12,0.11   C200.461,16.602,200.373,16.714,200.289,16.832z M194.977,4.018c-0.111,0.154-0.23,0.304-0.341,0.458   c0.031-0.176,0.06-0.354,0.088-0.532c0.021,0.008,0.034,0.021,0.057,0.028C194.845,3.989,194.912,4,194.977,4.018z M178.358,7.652   c0,0-0.002-0.002-0.003-0.003c0.025-0.067,0.052-0.134,0.071-0.204c0.081-0.021,0.163-0.04,0.243-0.062   C178.572,7.479,178.46,7.561,178.358,7.652z M176.022,18.747c0.132-0.035,0.266-0.066,0.397-0.102   c-0.09,0.088-0.194,0.163-0.288,0.248C176.095,18.845,176.06,18.795,176.022,18.747z"/>
	<path d="M353.098,80.39L353.098,80.39C353.137,80.438,353.146,80.449,353.098,80.39z"/>
	<path d="M336.484,95.429c-1.874,0-3.725,0.018-5.481,0.049c0.007-0.076-0.003-0.15-0.003-0.229v-7.624   c18-0.205,34.213-4.43,20.636-21.46c2.106-10.532-25.19-64.672-23.382-66.025c-0.15,0.113-0.413,0.236-0.413,0.351   c-0.148-0.114-0.275-0.238-0.426-0.351c1.809,1.353-25.333,55.493-23.227,66.025C290.609,83.198,307,87.421,325,87.625v7.624   c0,0.144-0.155,0.282-0.136,0.421c-7.865,0.345-13.308,1.022-13.308,1.805c0,1.132,11.157,2.048,24.973,2.048   s24.994-0.916,24.994-2.048C361.523,96.345,350.3,95.429,336.484,95.429z"/>
</g>
</svg>